<svg width="1153" height="338" viewBox="0 0 1153 338" fill="none" xmlns="http://www.w3.org/2000/svg">
<path d="M553.011 77.92C558.216 79.0293 562.398 81.632 565.555 85.728C568.712 89.7387 570.291 94.3467 570.291 99.552C570.291 107.061 567.646 113.035 562.355 117.472C557.15 121.824 549.854 124 540.467 124H498.611V34.144H539.059C548.19 34.144 555.315 36.2347 560.435 40.416C565.64 44.5973 568.243 50.272 568.243 57.44C568.243 62.7307 566.835 67.1253 564.019 70.624C561.288 74.1227 557.619 76.5547 553.011 77.92ZM520.499 70.496H534.835C538.419 70.496 541.15 69.728 543.027 68.192C544.99 66.5707 545.971 64.224 545.971 61.152C545.971 58.08 544.99 55.7333 543.027 54.112C541.15 52.4907 538.419 51.68 534.835 51.68H520.499V70.496ZM536.627 106.336C540.296 106.336 543.112 105.525 545.075 103.904C547.123 102.197 548.147 99.7653 548.147 96.608C548.147 93.4507 547.08 90.976 544.947 89.184C542.899 87.392 540.04 86.496 536.371 86.496H520.499V106.336H536.627ZM662.346 52.576L617.546 157.92H593.994L610.378 121.568L581.322 52.576H605.77L622.282 97.248L638.666 52.576H662.346Z" fill="#DEE5F5"/>
<path d="M352.446 219.56C350.825 216.573 348.478 214.312 345.406 212.776C342.42 211.155 338.878 210.344 334.782 210.344C327.7 210.344 322.025 212.691 317.758 217.384C313.492 221.992 311.358 228.179 311.358 235.944C311.358 244.221 313.577 250.707 318.014 255.4C322.537 260.008 328.724 262.312 336.574 262.312C341.95 262.312 346.473 260.947 350.142 258.216C353.897 255.485 356.628 251.56 358.334 246.44H330.558V230.312H378.174V250.664C376.553 256.125 373.78 261.203 369.854 265.896C366.014 270.589 361.108 274.387 355.134 277.288C349.161 280.189 342.42 281.64 334.91 281.64C326.036 281.64 318.1 279.72 311.102 275.88C304.19 271.955 298.772 266.536 294.846 259.624C291.006 252.712 289.086 244.819 289.086 235.944C289.086 227.069 291.006 219.176 294.846 212.264C298.772 205.267 304.19 199.848 311.102 196.008C318.014 192.083 325.908 190.12 334.782 190.12C345.534 190.12 354.58 192.723 361.918 197.928C369.342 203.133 374.249 210.344 376.638 219.56H352.446ZM440.602 208.808C448.794 208.808 455.365 211.539 460.314 217C465.264 222.376 467.738 229.8 467.738 239.272V281H445.978V242.216C445.978 237.437 444.741 233.725 442.266 231.08C439.792 228.435 436.464 227.112 432.282 227.112C428.101 227.112 424.773 228.435 422.298 231.08C419.824 233.725 418.586 237.437 418.586 242.216V281H396.698V186.28H418.586V219.176C420.805 216.019 423.834 213.501 427.674 211.624C431.514 209.747 435.824 208.808 440.602 208.808ZM556.676 244.136C556.676 246.184 556.548 248.317 556.292 250.536H506.756C507.098 254.973 508.506 258.387 510.98 260.776C513.54 263.08 516.655 264.232 520.324 264.232C525.786 264.232 529.583 261.928 531.716 257.32H555.012C553.818 262.013 551.642 266.237 548.484 269.992C545.412 273.747 541.53 276.691 536.836 278.824C532.143 280.957 526.895 282.024 521.092 282.024C514.095 282.024 507.866 280.531 502.404 277.544C496.943 274.557 492.676 270.291 489.604 264.744C486.532 259.197 484.996 252.712 484.996 245.288C484.996 237.864 486.49 231.379 489.476 225.832C492.548 220.285 496.815 216.019 502.276 213.032C507.738 210.045 514.01 208.552 521.092 208.552C528.004 208.552 534.148 210.003 539.524 212.904C544.9 215.805 549.082 219.944 552.068 225.32C555.14 230.696 556.676 236.968 556.676 244.136ZM534.276 238.376C534.276 234.621 532.996 231.635 530.436 229.416C527.876 227.197 524.676 226.088 520.836 226.088C517.167 226.088 514.052 227.155 511.492 229.288C509.018 231.421 507.482 234.451 506.884 238.376H534.276ZM618.272 281L596.512 251.048V281H574.624V186.28H596.512V238.632L618.144 209.576H645.152L615.456 245.416L645.408 281H618.272ZM703.797 281L682.037 251.048V281H660.149V186.28H682.037V238.632L703.669 209.576H730.677L700.981 245.416L730.933 281H703.797ZM756.681 202.152C752.841 202.152 749.684 201.043 747.209 198.824C744.82 196.52 743.625 193.704 743.625 190.376C743.625 186.963 744.82 184.147 747.209 181.928C749.684 179.624 752.841 178.472 756.681 178.472C760.436 178.472 763.508 179.624 765.897 181.928C768.372 184.147 769.609 186.963 769.609 190.376C769.609 193.704 768.372 196.52 765.897 198.824C763.508 201.043 760.436 202.152 756.681 202.152ZM767.561 209.576V281H745.673V209.576H767.561ZM833.343 208.808C841.706 208.808 848.362 211.539 853.311 217C858.346 222.376 860.863 229.8 860.863 239.272V281H839.103V242.216C839.103 237.437 837.866 233.725 835.391 231.08C832.917 228.435 829.589 227.112 825.407 227.112C821.226 227.112 817.898 228.435 815.423 231.08C812.949 233.725 811.711 237.437 811.711 242.216V281H789.823V209.576H811.711V219.048C813.93 215.891 816.917 213.416 820.671 211.624C824.426 209.747 828.65 208.808 833.343 208.808Z" fill="#C393C2"/>
</svg>
