<svg width="31" height="31" viewBox="0 0 31 31" fill="none" xmlns="http://www.w3.org/2000/svg">
<path d="M29.2888 0H1.71123C0.766301 0.000381866 0.000381866 0.766301 0 1.71123V29.2888C0.000381866 30.2337 0.766301 30.9996 1.71123 31H15.5V18.8214H11.7945V14.3929H15.5V10.8638C15.5 6.86013 18.2769 4.68045 21.8536 4.68045C23.5648 4.68045 25.4055 4.80915 25.8331 4.86589V9.04743H22.9836C21.0378 9.04743 20.6669 9.96775 20.6669 11.324V14.3929H25.3031L24.6976 18.8214H20.6669V31H29.2888C30.2337 30.9996 30.9996 30.2337 31 29.2888V1.71123C30.9996 0.766301 30.2337 0.000381866 29.2888 0Z" fill="#DEE5F5"/>
</svg>
