<svg width="2150" height="105" viewBox="0 0 2150 105" fill="none" xmlns="http://www.w3.org/2000/svg">
<path d="M68.816 42.072C68.816 47.2773 67.6214 52.056 65.232 56.408C62.8427 60.6747 59.1734 64.1307 54.224 66.776C49.2747 69.4213 43.1307 70.744 35.792 70.744H22.224V103H0.336025V13.144H35.792C42.96 13.144 49.0187 14.3813 53.968 16.856C58.9174 19.3307 62.6294 22.744 65.104 27.096C67.5787 31.448 68.816 36.44 68.816 42.072ZM34.128 53.336C38.3094 53.336 41.424 52.3547 43.472 50.392C45.52 48.4293 46.544 45.656 46.544 42.072C46.544 38.488 45.52 35.7147 43.472 33.752C41.424 31.7893 38.3094 30.808 34.128 30.808H22.224V53.336H34.128ZM108.499 8.28V103H86.611V8.28H108.499ZM126.409 67.16C126.409 59.8213 127.774 53.3787 130.505 47.832C133.321 42.2853 137.118 38.0187 141.897 35.032C146.676 32.0453 152.009 30.552 157.897 30.552C162.932 30.552 167.326 31.576 171.081 33.624C174.921 35.672 177.865 38.36 179.913 41.688V31.576H201.801V103H179.913V92.888C177.78 96.216 174.793 98.904 170.953 100.952C167.198 103 162.804 104.024 157.769 104.024C151.966 104.024 146.676 102.531 141.897 99.544C137.118 96.472 133.321 92.1627 130.505 86.616C127.774 80.984 126.409 74.4987 126.409 67.16ZM179.913 67.288C179.913 61.8267 178.377 57.5173 175.305 54.36C172.318 51.2027 168.649 49.624 164.297 49.624C159.945 49.624 156.233 51.2027 153.161 54.36C150.174 57.432 148.681 61.6987 148.681 67.16C148.681 72.6213 150.174 76.9733 153.161 80.216C156.233 83.3733 159.945 84.952 164.297 84.952C168.649 84.952 172.318 83.3733 175.305 80.216C178.377 77.0587 179.913 72.7493 179.913 67.288ZM263.844 84.44V103H252.708C244.772 103 238.585 101.08 234.148 97.24C229.711 93.3147 227.492 86.9573 227.492 78.168V49.752H218.788V31.576H227.492V14.168H249.38V31.576H263.716V49.752H249.38V78.424C249.38 80.5573 249.892 82.0933 250.916 83.032C251.94 83.9707 253.647 84.44 256.036 84.44H263.844ZM278.084 67.16C278.084 59.8213 279.449 53.3787 282.18 47.832C284.996 42.2853 288.793 38.0187 293.572 35.032C298.351 32.0453 303.684 30.552 309.572 30.552C314.607 30.552 319.001 31.576 322.756 33.624C326.596 35.672 329.54 38.36 331.588 41.688V31.576H353.476V103H331.588V92.888C329.455 96.216 326.468 98.904 322.628 100.952C318.873 103 314.479 104.024 309.444 104.024C303.641 104.024 298.351 102.531 293.572 99.544C288.793 96.472 284.996 92.1627 282.18 86.616C279.449 80.984 278.084 74.4987 278.084 67.16ZM331.588 67.288C331.588 61.8267 330.052 57.5173 326.98 54.36C323.993 51.2027 320.324 49.624 315.972 49.624C311.62 49.624 307.908 51.2027 304.836 54.36C301.849 57.432 300.356 61.6987 300.356 67.16C300.356 72.6213 301.849 76.9733 304.836 80.216C307.908 83.3733 311.62 84.952 315.972 84.952C320.324 84.952 323.993 83.3733 326.98 80.216C330.052 77.0587 331.588 72.7493 331.588 67.288ZM411.551 49.752H399.775V103H377.887V49.752H369.951V31.576H377.887V29.528C377.887 20.7387 380.404 14.0827 385.439 9.56C390.474 4.952 397.855 2.64799 407.583 2.64799C409.204 2.64799 410.399 2.69066 411.167 2.77599V21.336C406.986 21.08 404.042 21.6773 402.335 23.128C400.628 24.5787 399.775 27.1813 399.775 30.936V31.576H411.551V49.752ZM460.748 104.024C453.751 104.024 447.436 102.531 441.804 99.544C436.257 96.5573 431.863 92.2907 428.62 86.744C425.463 81.1973 423.884 74.712 423.884 67.288C423.884 59.9493 425.505 53.5067 428.748 47.96C431.991 42.328 436.428 38.0187 442.06 35.032C447.692 32.0453 454.007 30.552 461.004 30.552C468.001 30.552 474.316 32.0453 479.948 35.032C485.58 38.0187 490.017 42.328 493.26 47.96C496.503 53.5067 498.124 59.9493 498.124 67.288C498.124 74.6267 496.46 81.112 493.132 86.744C489.889 92.2907 485.409 96.5573 479.692 99.544C474.06 102.531 467.745 104.024 460.748 104.024ZM460.748 85.08C464.929 85.08 468.471 83.544 471.372 80.472C474.359 77.4 475.852 73.0053 475.852 67.288C475.852 61.5707 474.401 57.176 471.5 54.104C468.684 51.032 465.185 49.496 461.004 49.496C456.737 49.496 453.196 51.032 450.38 54.104C447.564 57.0907 446.156 61.4853 446.156 67.288C446.156 73.0053 447.521 77.4 450.252 80.472C453.068 83.544 456.567 85.08 460.748 85.08ZM538.024 43.48C540.584 39.5547 543.784 36.4827 547.624 34.264C551.464 31.96 555.731 30.808 560.424 30.808V53.976H554.408C548.947 53.976 544.851 55.1707 542.12 57.56C539.389 59.864 538.024 63.96 538.024 69.848V103H516.136V31.576H538.024V43.48ZM668.422 30.808C677.297 30.808 684.337 33.496 689.542 38.872C694.833 44.248 697.478 51.7147 697.478 61.272V103H675.718V64.216C675.718 59.608 674.481 56.0667 672.006 53.592C669.617 51.032 666.289 49.752 662.022 49.752C657.755 49.752 654.385 51.032 651.91 53.592C649.521 56.0667 648.326 59.608 648.326 64.216V103H626.566V64.216C626.566 59.608 625.329 56.0667 622.854 53.592C620.465 51.032 617.137 49.752 612.87 49.752C608.603 49.752 605.233 51.032 602.758 53.592C600.369 56.0667 599.174 59.608 599.174 64.216V103H577.286V31.576H599.174V40.536C601.393 37.5493 604.294 35.2027 607.878 33.496C611.462 31.704 615.515 30.808 620.038 30.808C625.414 30.808 630.193 31.96 634.374 34.264C638.641 36.568 641.969 39.8533 644.358 44.12C646.833 40.1947 650.203 36.9947 654.47 34.52C658.737 32.0453 663.387 30.808 668.422 30.808ZM714.834 67.16C714.834 59.8213 716.199 53.3787 718.93 47.832C721.746 42.2853 725.543 38.0187 730.322 35.032C735.101 32.0453 740.434 30.552 746.322 30.552C751.357 30.552 755.751 31.576 759.506 33.624C763.346 35.672 766.29 38.36 768.338 41.688V31.576H790.226V103H768.338V92.888C766.205 96.216 763.218 98.904 759.378 100.952C755.623 103 751.229 104.024 746.194 104.024C740.391 104.024 735.101 102.531 730.322 99.544C725.543 96.472 721.746 92.1627 718.93 86.616C716.199 80.984 714.834 74.4987 714.834 67.16ZM768.338 67.288C768.338 61.8267 766.802 57.5173 763.73 54.36C760.743 51.2027 757.074 49.624 752.722 49.624C748.37 49.624 744.658 51.2027 741.586 54.36C738.599 57.432 737.106 61.6987 737.106 67.16C737.106 72.6213 738.599 76.9733 741.586 80.216C744.658 83.3733 748.37 84.952 752.722 84.952C757.074 84.952 760.743 83.3733 763.73 80.216C766.802 77.0587 768.338 72.7493 768.338 67.288ZM879.65 13.144C889.122 13.144 897.399 15.0213 904.482 18.776C911.565 22.5307 917.026 27.8213 920.866 34.648C924.791 41.3893 926.754 49.1973 926.754 58.072C926.754 66.8613 924.791 74.6693 920.866 81.496C917.026 88.3227 911.522 93.6133 904.354 97.368C897.271 101.123 889.037 103 879.65 103H845.986V13.144H879.65ZM878.242 84.056C886.519 84.056 892.962 81.7947 897.57 77.272C902.178 72.7493 904.482 66.3493 904.482 58.072C904.482 49.7947 902.178 43.352 897.57 38.744C892.962 34.136 886.519 31.832 878.242 31.832H867.874V84.056H878.242ZM1012.71 66.136C1012.71 68.184 1012.59 70.3173 1012.33 72.536H962.794C963.135 76.9733 964.543 80.3867 967.018 82.776C969.578 85.08 972.693 86.232 976.362 86.232C981.823 86.232 985.621 83.928 987.754 79.32H1011.05C1009.86 84.0133 1007.68 88.2373 1004.52 91.992C1001.45 95.7467 997.567 98.6907 992.874 100.824C988.181 102.957 982.933 104.024 977.13 104.024C970.133 104.024 963.903 102.531 958.442 99.544C952.981 96.5573 948.714 92.2907 945.642 86.744C942.57 81.1973 941.034 74.712 941.034 67.288C941.034 59.864 942.527 53.3787 945.514 47.832C948.586 42.2853 952.853 38.0187 958.314 35.032C963.775 32.0453 970.047 30.552 977.13 30.552C984.042 30.552 990.186 32.0027 995.562 34.904C1000.94 37.8053 1005.12 41.944 1008.11 47.32C1011.18 52.696 1012.71 58.968 1012.71 66.136ZM990.314 60.376C990.314 56.6213 989.034 53.6347 986.474 51.416C983.914 49.1973 980.714 48.088 976.874 48.088C973.205 48.088 970.09 49.1547 967.53 51.288C965.055 53.4213 963.519 56.4507 962.922 60.376H990.314ZM1123.83 41.56C1122.21 38.5733 1119.87 36.312 1116.79 34.776C1113.81 33.1547 1110.27 32.344 1106.17 32.344C1099.09 32.344 1093.41 34.6907 1089.15 39.384C1084.88 43.992 1082.75 50.1787 1082.75 57.944C1082.75 66.2213 1084.96 72.7067 1089.4 77.4C1093.92 82.008 1100.11 84.312 1107.96 84.312C1113.34 84.312 1117.86 82.9467 1121.53 80.216C1125.28 77.4853 1128.02 73.56 1129.72 68.44H1101.95V52.312H1149.56V72.664C1147.94 78.1253 1145.17 83.2027 1141.24 87.896C1137.4 92.5893 1132.5 96.3867 1126.52 99.288C1120.55 102.189 1113.81 103.64 1106.3 103.64C1097.42 103.64 1089.49 101.72 1082.49 97.88C1075.58 93.9547 1070.16 88.536 1066.23 81.624C1062.39 74.712 1060.47 66.8187 1060.47 57.944C1060.47 49.0693 1062.39 41.176 1066.23 34.264C1070.16 27.2667 1075.58 21.848 1082.49 18.008C1089.4 14.0827 1097.3 12.12 1106.17 12.12C1116.92 12.12 1125.97 14.7227 1133.31 19.928C1140.73 25.1333 1145.64 32.344 1148.03 41.56H1123.83ZM1235.41 66.136C1235.41 68.184 1235.29 70.3173 1235.03 72.536H1185.49C1185.84 76.9733 1187.24 80.3867 1189.72 82.776C1192.28 85.08 1195.39 86.232 1199.06 86.232C1204.52 86.232 1208.32 83.928 1210.45 79.32H1233.75C1232.56 84.0133 1230.38 88.2373 1227.22 91.992C1224.15 95.7467 1220.27 98.6907 1215.57 100.824C1210.88 102.957 1205.63 104.024 1199.83 104.024C1192.83 104.024 1186.6 102.531 1181.14 99.544C1175.68 96.5573 1171.41 92.2907 1168.34 86.744C1165.27 81.1973 1163.73 74.712 1163.73 67.288C1163.73 59.864 1165.23 53.3787 1168.21 47.832C1171.29 42.2853 1175.55 38.0187 1181.01 35.032C1186.48 32.0453 1192.75 30.552 1199.83 30.552C1206.74 30.552 1212.89 32.0027 1218.26 34.904C1223.64 37.8053 1227.82 41.944 1230.81 47.32C1233.88 52.696 1235.41 58.968 1235.41 66.136ZM1213.01 60.376C1213.01 56.6213 1211.73 53.6347 1209.17 51.416C1206.61 49.1973 1203.41 48.088 1199.57 48.088C1195.9 48.088 1192.79 49.1547 1190.23 51.288C1187.76 53.4213 1186.22 56.4507 1185.62 60.376H1213.01ZM1282.42 104.024C1276.19 104.024 1270.64 102.957 1265.78 100.824C1260.91 98.6907 1257.07 95.7893 1254.26 92.12C1251.44 88.3653 1249.86 84.184 1249.52 79.576H1271.15C1271.41 82.0507 1272.56 84.056 1274.61 85.592C1276.66 87.128 1279.17 87.896 1282.16 87.896C1284.89 87.896 1286.98 87.384 1288.43 86.36C1289.97 85.2507 1290.74 83.8427 1290.74 82.136C1290.74 80.088 1289.67 78.5947 1287.54 77.656C1285.4 76.632 1281.95 75.5227 1277.17 74.328C1272.05 73.1333 1267.78 71.896 1264.37 70.616C1260.96 69.2507 1258.01 67.16 1255.54 64.344C1253.06 61.4427 1251.83 57.56 1251.83 52.696C1251.83 48.6 1252.93 44.888 1255.15 41.56C1257.46 38.1467 1260.79 35.4587 1265.14 33.496C1269.57 31.5333 1274.82 30.552 1280.88 30.552C1289.84 30.552 1296.88 32.7707 1302 37.208C1307.21 41.6453 1310.19 47.5333 1310.96 54.872H1290.74C1290.4 52.3973 1289.29 50.4347 1287.41 48.984C1285.62 47.5333 1283.23 46.808 1280.24 46.808C1277.68 46.808 1275.72 47.32 1274.35 48.344C1272.99 49.2827 1272.31 50.6053 1272.31 52.312C1272.31 54.36 1273.37 55.896 1275.51 56.92C1277.72 57.944 1281.14 58.968 1285.75 59.992C1291.04 61.3573 1295.35 62.7227 1298.67 64.088C1302 65.368 1304.9 67.5013 1307.38 70.488C1309.94 73.3893 1311.26 77.3147 1311.35 82.264C1311.35 86.4453 1310.15 90.2 1307.76 93.528C1305.46 96.7707 1302.09 99.3307 1297.65 101.208C1293.3 103.085 1288.22 104.024 1282.42 104.024ZM1370.94 84.44V103H1359.81C1351.87 103 1345.69 101.08 1341.25 97.24C1336.81 93.3147 1334.59 86.9573 1334.59 78.168V49.752H1325.89V31.576H1334.59V14.168H1356.48V31.576H1370.82V49.752H1356.48V78.424C1356.48 80.5573 1356.99 82.0933 1358.02 83.032C1359.04 83.9707 1360.75 84.44 1363.14 84.44H1370.94ZM1400.54 24.152C1396.7 24.152 1393.55 23.0427 1391.07 20.824C1388.68 18.52 1387.49 15.704 1387.49 12.376C1387.49 8.96266 1388.68 6.14666 1391.07 3.92799C1393.55 1.62399 1396.7 0.471992 1400.54 0.471992C1404.3 0.471992 1407.37 1.62399 1409.76 3.92799C1412.23 6.14666 1413.47 8.96266 1413.47 12.376C1413.47 15.704 1412.23 18.52 1409.76 20.824C1407.37 23.0427 1404.3 24.152 1400.54 24.152ZM1411.42 31.576V103H1389.54V31.576H1411.42ZM1466.2 104.024C1459.2 104.024 1452.89 102.531 1447.25 99.544C1441.71 96.5573 1437.31 92.2907 1434.07 86.744C1430.91 81.1973 1429.33 74.712 1429.33 67.288C1429.33 59.9493 1430.96 53.5067 1434.2 47.96C1437.44 42.328 1441.88 38.0187 1447.51 35.032C1453.14 32.0453 1459.46 30.552 1466.45 30.552C1473.45 30.552 1479.77 32.0453 1485.4 35.032C1491.03 38.0187 1495.47 42.328 1498.71 47.96C1501.95 53.5067 1503.57 59.9493 1503.57 67.288C1503.57 74.6267 1501.91 81.112 1498.58 86.744C1495.34 92.2907 1490.86 96.5573 1485.14 99.544C1479.51 102.531 1473.2 104.024 1466.2 104.024ZM1466.2 85.08C1470.38 85.08 1473.92 83.544 1476.82 80.472C1479.81 77.4 1481.3 73.0053 1481.3 67.288C1481.3 61.5707 1479.85 57.176 1476.95 54.104C1474.13 51.032 1470.64 49.496 1466.45 49.496C1462.19 49.496 1458.65 51.032 1455.83 54.104C1453.01 57.0907 1451.61 61.4853 1451.61 67.288C1451.61 73.0053 1452.97 77.4 1455.7 80.472C1458.52 83.544 1462.02 85.08 1466.2 85.08ZM1565.11 30.808C1573.47 30.808 1580.12 33.5387 1585.07 39C1590.11 44.376 1592.63 51.8 1592.63 61.272V103H1570.87V64.216C1570.87 59.4373 1569.63 55.7253 1567.15 53.08C1564.68 50.4347 1561.35 49.112 1557.17 49.112C1552.99 49.112 1549.66 50.4347 1547.19 53.08C1544.71 55.7253 1543.47 59.4373 1543.47 64.216V103H1521.59V31.576H1543.47V41.048C1545.69 37.8907 1548.68 35.416 1552.43 33.624C1556.19 31.7467 1560.41 30.808 1565.11 30.808ZM1749.52 13.144V103H1727.63V49.112L1707.54 103H1689.87L1669.65 48.984V103H1647.76V13.144H1673.62L1698.83 75.352L1723.79 13.144H1749.52ZM1838.99 66.136C1838.99 68.184 1838.86 70.3173 1838.6 72.536H1789.07C1789.41 76.9733 1790.82 80.3867 1793.29 82.776C1795.85 85.08 1798.97 86.232 1802.64 86.232C1808.1 86.232 1811.9 83.928 1814.03 79.32H1837.32C1836.13 84.0133 1833.95 88.2373 1830.8 91.992C1827.72 95.7467 1823.84 98.6907 1819.15 100.824C1814.46 102.957 1809.21 104.024 1803.4 104.024C1796.41 104.024 1790.18 102.531 1784.72 99.544C1779.26 96.5573 1774.99 92.2907 1771.92 86.744C1768.84 81.1973 1767.31 74.712 1767.31 67.288C1767.31 59.864 1768.8 53.3787 1771.79 47.832C1774.86 42.2853 1779.13 38.0187 1784.59 35.032C1790.05 32.0453 1796.32 30.552 1803.4 30.552C1810.32 30.552 1816.46 32.0027 1821.84 34.904C1827.21 37.8053 1831.39 41.944 1834.38 47.32C1837.45 52.696 1838.99 58.968 1838.99 66.136ZM1816.59 60.376C1816.59 56.6213 1815.31 53.6347 1812.75 51.416C1810.19 49.1973 1806.99 48.088 1803.15 48.088C1799.48 48.088 1796.36 49.1547 1793.8 51.288C1791.33 53.4213 1789.79 56.4507 1789.2 60.376H1816.59ZM1852.58 67.16C1852.58 59.8213 1853.95 53.3787 1856.68 47.832C1859.5 42.2853 1863.29 38.0187 1868.07 35.032C1872.85 32.0453 1878.18 30.552 1884.07 30.552C1888.77 30.552 1893.03 31.5333 1896.87 33.496C1900.8 35.4587 1903.87 38.104 1906.09 41.432V8.28H1927.98V103H1906.09V92.76C1904.04 96.1733 1901.1 98.904 1897.26 100.952C1893.5 103 1889.11 104.024 1884.07 104.024C1878.18 104.024 1872.85 102.531 1868.07 99.544C1863.29 96.472 1859.5 92.1627 1856.68 86.616C1853.95 80.984 1852.58 74.4987 1852.58 67.16ZM1906.09 67.288C1906.09 61.8267 1904.55 57.5173 1901.48 54.36C1898.49 51.2027 1894.82 49.624 1890.47 49.624C1886.12 49.624 1882.41 51.2027 1879.34 54.36C1876.35 57.432 1874.86 61.6987 1874.86 67.16C1874.86 72.6213 1876.35 76.9733 1879.34 80.216C1882.41 83.3733 1886.12 84.952 1890.47 84.952C1894.82 84.952 1898.49 83.3733 1901.48 80.216C1904.55 77.0587 1906.09 72.7493 1906.09 67.288ZM1961.22 24.152C1957.38 24.152 1954.22 23.0427 1951.75 20.824C1949.36 18.52 1948.16 15.704 1948.16 12.376C1948.16 8.96266 1949.36 6.14666 1951.75 3.92799C1954.22 1.62399 1957.38 0.471992 1961.22 0.471992C1964.97 0.471992 1968.05 1.62399 1970.43 3.92799C1972.91 6.14666 1974.15 8.96266 1974.15 12.376C1974.15 15.704 1972.91 18.52 1970.43 20.824C1968.05 23.0427 1964.97 24.152 1961.22 24.152ZM1972.1 31.576V103H1950.21V31.576H1972.1ZM1990.01 67.288C1990.01 59.864 1991.5 53.3787 1994.49 47.832C1997.56 42.2853 2001.79 38.0187 2007.16 35.032C2012.62 32.0453 2018.85 30.552 2025.85 30.552C2034.81 30.552 2042.28 32.8987 2048.25 37.592C2054.31 42.2853 2058.28 48.8987 2060.15 57.432H2036.86C2034.89 51.9707 2031.1 49.24 2025.47 49.24C2021.45 49.24 2018.25 50.8187 2015.87 53.976C2013.48 57.048 2012.28 61.4853 2012.28 67.288C2012.28 73.0907 2013.48 77.5707 2015.87 80.728C2018.25 83.8 2021.45 85.336 2025.47 85.336C2031.1 85.336 2034.89 82.6053 2036.86 77.144H2060.15C2058.28 85.5067 2054.31 92.0773 2048.25 96.856C2042.19 101.635 2034.72 104.024 2025.85 104.024C2018.85 104.024 2012.62 102.531 2007.16 99.544C2001.79 96.5573 1997.56 92.2907 1994.49 86.744C1991.5 81.1973 1990.01 74.712 1990.01 67.288ZM2073.91 67.16C2073.91 59.8213 2075.27 53.3787 2078.01 47.832C2080.82 42.2853 2084.62 38.0187 2089.4 35.032C2094.18 32.0453 2099.51 30.552 2105.4 30.552C2110.43 30.552 2114.83 31.576 2118.58 33.624C2122.42 35.672 2125.37 38.36 2127.41 41.688V31.576H2149.3V103H2127.41V92.888C2125.28 96.216 2122.29 98.904 2118.45 100.952C2114.7 103 2110.3 104.024 2105.27 104.024C2099.47 104.024 2094.18 102.531 2089.4 99.544C2084.62 96.472 2080.82 92.1627 2078.01 86.616C2075.27 80.984 2073.91 74.4987 2073.91 67.16ZM2127.41 67.288C2127.41 61.8267 2125.88 57.5173 2122.81 54.36C2119.82 51.2027 2116.15 49.624 2111.8 49.624C2107.45 49.624 2103.73 51.2027 2100.66 54.36C2097.67 57.432 2096.18 61.6987 2096.18 67.16C2096.18 72.6213 2097.67 76.9733 2100.66 80.216C2103.73 83.3733 2107.45 84.952 2111.8 84.952C2116.15 84.952 2119.82 83.3733 2122.81 80.216C2125.88 77.0587 2127.41 72.7493 2127.41 67.288Z" fill="#DEE5F5"/>
</svg>
