<svg width="780" height="137" viewBox="0 0 780 137" fill="none" xmlns="http://www.w3.org/2000/svg">
<path d="M54.411 56.92C59.6163 58.0293 63.7977 60.632 66.955 64.728C70.1124 68.7387 71.691 73.3467 71.691 78.552C71.691 86.0613 69.0457 92.0347 63.755 96.472C58.5497 100.824 51.2537 103 41.867 103H0.0110126V13.144H40.459C49.5897 13.144 56.715 15.2347 61.835 19.416C67.0403 23.5973 69.643 29.272 69.643 36.44C69.643 41.7307 68.235 46.1253 65.419 49.624C62.6883 53.1227 59.019 55.5547 54.411 56.92ZM21.899 49.496H36.235C39.819 49.496 42.5497 48.728 44.427 47.192C46.3897 45.5707 47.371 43.224 47.371 40.152C47.371 37.08 46.3897 34.7333 44.427 33.112C42.5497 31.4907 39.819 30.68 36.235 30.68H21.899V49.496ZM38.027 85.336C41.6963 85.336 44.5123 84.5253 46.475 82.904C48.523 81.1973 49.547 78.7653 49.547 75.608C49.547 72.4507 48.4803 69.976 46.347 68.184C44.299 66.392 41.4403 65.496 37.771 65.496H21.899V85.336H38.027ZM163.746 31.576L118.946 136.92H95.394L111.778 100.568L82.722 31.576H107.17L123.682 76.248L140.066 31.576H163.746Z" fill="#DEE5F5"/>
<path d="M271.234 41.56C269.613 38.5733 267.266 36.312 264.194 34.776C261.207 33.1547 257.666 32.344 253.57 32.344C246.487 32.344 240.813 34.6907 236.546 39.384C232.279 43.992 230.146 50.1787 230.146 57.944C230.146 66.2213 232.365 72.7067 236.802 77.4C241.325 82.008 247.511 84.312 255.362 84.312C260.738 84.312 265.261 82.9467 268.93 80.216C272.685 77.4853 275.415 73.56 277.122 68.44H249.346V52.312H296.962V72.664C295.341 78.1253 292.567 83.2027 288.642 87.896C284.802 92.5893 279.895 96.3867 273.922 99.288C267.949 102.189 261.207 103.64 253.698 103.64C244.823 103.64 236.887 101.72 229.89 97.88C222.978 93.9547 217.559 88.536 213.634 81.624C209.794 74.712 207.874 66.8187 207.874 57.944C207.874 49.0693 209.794 41.176 213.634 34.264C217.559 27.2667 222.978 21.848 229.89 18.008C236.802 14.0827 244.695 12.12 253.57 12.12C264.322 12.12 273.367 14.7227 280.706 19.928C288.13 25.1333 293.037 32.344 295.426 41.56H271.234ZM359.39 30.808C367.582 30.808 374.153 33.5387 379.102 39C384.051 44.376 386.526 51.8 386.526 61.272V103H364.766V64.216C364.766 59.4373 363.529 55.7253 361.054 53.08C358.579 50.4347 355.251 49.112 351.07 49.112C346.889 49.112 343.561 50.4347 341.086 53.08C338.611 55.7253 337.374 59.4373 337.374 64.216V103H315.486V8.28H337.374V41.176C339.593 38.0187 342.622 35.5013 346.462 33.624C350.302 31.7467 354.611 30.808 359.39 30.808ZM475.464 66.136C475.464 68.184 475.336 70.3173 475.08 72.536H425.544C425.885 76.9733 427.293 80.3867 429.768 82.776C432.328 85.08 435.443 86.232 439.112 86.232C444.573 86.232 448.371 83.928 450.504 79.32H473.8C472.605 84.0133 470.429 88.2373 467.272 91.992C464.2 95.7467 460.317 98.6907 455.624 100.824C450.931 102.957 445.683 104.024 439.88 104.024C432.883 104.024 426.653 102.531 421.192 99.544C415.731 96.5573 411.464 92.2907 408.392 86.744C405.32 81.1973 403.784 74.712 403.784 67.288C403.784 59.864 405.277 53.3787 408.264 47.832C411.336 42.2853 415.603 38.0187 421.064 35.032C426.525 32.0453 432.797 30.552 439.88 30.552C446.792 30.552 452.936 32.0027 458.312 34.904C463.688 37.8053 467.869 41.944 470.856 47.32C473.928 52.696 475.464 58.968 475.464 66.136ZM453.064 60.376C453.064 56.6213 451.784 53.6347 449.224 51.416C446.664 49.1973 443.464 48.088 439.624 48.088C435.955 48.088 432.84 49.1547 430.28 51.288C427.805 53.4213 426.269 56.4507 425.672 60.376H453.064ZM537.059 103L515.299 73.048V103H493.411V8.28H515.299V60.632L536.931 31.576H563.939L534.243 67.416L564.195 103H537.059ZM622.584 103L600.824 73.048V103H578.936V8.28H600.824V60.632L622.456 31.576H649.464L619.768 67.416L649.72 103H622.584ZM675.469 24.152C671.629 24.152 668.472 23.0427 665.997 20.824C663.608 18.52 662.413 15.704 662.413 12.376C662.413 8.96266 663.608 6.14666 665.997 3.92799C668.472 1.62399 671.629 0.471992 675.469 0.471992C679.224 0.471992 682.296 1.62399 684.685 3.92799C687.16 6.14666 688.397 8.96266 688.397 12.376C688.397 15.704 687.16 18.52 684.685 20.824C682.296 23.0427 679.224 24.152 675.469 24.152ZM686.349 31.576V103H664.461V31.576H686.349ZM752.131 30.808C760.494 30.808 767.15 33.5387 772.099 39C777.134 44.376 779.651 51.8 779.651 61.272V103H757.891V64.216C757.891 59.4373 756.654 55.7253 754.179 53.08C751.704 50.4347 748.376 49.112 744.195 49.112C740.014 49.112 736.686 50.4347 734.211 53.08C731.736 55.7253 730.499 59.4373 730.499 64.216V103H708.611V31.576H730.499V41.048C732.718 37.8907 735.704 35.416 739.459 33.624C743.214 31.7467 747.438 30.808 752.131 30.808Z" fill="#C393C2"/>
</svg>
