<svg width="39" height="31" viewBox="0 0 39 31" fill="none" xmlns="http://www.w3.org/2000/svg">
<path d="M39 3.67318C37.5371 4.30476 35.9892 4.72087 34.4053 4.90833C36.0699 3.93989 37.3216 2.40135 37.9259 0.581262C36.3521 1.49559 34.6333 2.13713 32.8429 2.47839C31.3193 0.891858 29.2072 -0.00403925 27.0002 1.36918e-05C22.5786 1.36918e-05 19.0003 3.50365 19.0003 7.82265C18.9972 8.4234 19.0665 9.02237 19.2067 9.60675C12.7956 9.30813 6.80784 6.33932 2.71294 1.42892C2.00247 2.61896 1.62673 3.97676 1.625 5.36041C1.625 8.0729 3.04931 10.4706 5.2 11.8752C3.92578 11.8452 2.67767 11.5101 1.56163 10.8984V10.9953C1.56163 14.7896 4.32412 17.9461 7.98037 18.6645C7.29282 18.8466 6.58431 18.9389 5.87275 18.939C5.36785 18.9399 4.86409 18.8912 4.36881 18.7937C5.38525 21.9018 8.34356 24.1622 11.8479 24.2268C9.00037 26.4072 5.50438 27.5857 1.90937 27.577C1.27125 27.5761 0.633722 27.5383 0 27.464C3.65721 29.7843 7.90842 31.0117 12.2476 30.9999C26.9831 30.9999 35.0334 19.0763 35.0334 8.73488C35.0334 8.39582 35.0244 8.05676 35.0082 7.72577C36.5707 6.62145 37.9225 5.2491 39 3.67318Z" fill="#DEE5F5"/>
</svg>
