<svg width="673" height="161" viewBox="0 0 673 161" fill="none" xmlns="http://www.w3.org/2000/svg">
<g clip-path="url(#clip0_149_78)">
<path d="M68 48.2727L45.3333 37L22.6666 48.2727V138.455L45.3333 149.727L68 138.455V48.2727Z" fill="#DEE5F5"/>
<path d="M45.3334 87.7273L34 82.0909L11.3334 93.3636L22.6667 99L45.3334 87.7273Z" fill="#C393C2"/>
<path d="M0 59.5455L11.3333 53.9091L34 65.1818V155.364L22.6667 161L0 149.727V59.5455Z" fill="#5E7BAA"/>
<path d="M0 59.5454V149.727L22.6667 161V70.8182L0 59.5454Z" fill="#C393C2"/>
<path d="M45.3334 149.727V59.5455L68 48.2727V138.455L45.3334 149.727Z" fill="#C393C2"/>
<path d="M22.6666 121.545L45.3333 110.273V87.7273L22.6666 99V121.545Z" fill="#C393C2"/>
</g>
<path d="M173.76 51.144V141H151.872V104.008H117.824V141H95.936V51.144H117.824V86.344H151.872V51.144H173.76ZM263.289 104.136C263.289 106.184 263.161 108.317 262.905 110.536H213.369C213.71 114.973 215.118 118.387 217.593 120.776C220.153 123.08 223.268 124.232 226.937 124.232C232.398 124.232 236.196 121.928 238.329 117.32H261.625C260.43 122.013 258.254 126.237 255.097 129.992C252.025 133.747 248.142 136.691 243.449 138.824C238.756 140.957 233.508 142.024 227.705 142.024C220.708 142.024 214.478 140.531 209.017 137.544C203.556 134.557 199.289 130.291 196.217 124.744C193.145 119.197 191.609 112.712 191.609 105.288C191.609 97.864 193.102 91.3787 196.089 85.832C199.161 80.2853 203.428 76.0187 208.889 73.032C214.35 70.0453 220.622 68.552 227.705 68.552C234.617 68.552 240.761 70.0027 246.137 72.904C251.513 75.8053 255.694 79.944 258.681 85.32C261.753 90.696 263.289 96.968 263.289 104.136ZM240.889 98.376C240.889 94.6213 239.609 91.6347 237.049 89.416C234.489 87.1973 231.289 86.088 227.449 86.088C223.78 86.088 220.665 87.1547 218.105 89.288C215.63 91.4213 214.094 94.4507 213.497 98.376H240.889ZM276.884 105.16C276.884 97.8213 278.249 91.3787 280.98 85.832C283.796 80.2853 287.593 76.0187 292.372 73.032C297.151 70.0453 302.484 68.552 308.372 68.552C313.407 68.552 317.801 69.576 321.556 71.624C325.396 73.672 328.34 76.36 330.388 79.688V69.576H352.276V141H330.388V130.888C328.255 134.216 325.268 136.904 321.428 138.952C317.673 141 313.279 142.024 308.244 142.024C302.441 142.024 297.151 140.531 292.372 137.544C287.593 134.472 283.796 130.163 280.98 124.616C278.249 118.984 276.884 112.499 276.884 105.16ZM330.388 105.288C330.388 99.8267 328.852 95.5173 325.78 92.36C322.793 89.2027 319.124 87.624 314.772 87.624C310.42 87.624 306.708 89.2027 303.636 92.36C300.649 95.432 299.156 99.6987 299.156 105.16C299.156 110.621 300.649 114.973 303.636 118.216C306.708 121.373 310.42 122.952 314.772 122.952C319.124 122.952 322.793 121.373 325.78 118.216C328.852 115.059 330.388 110.749 330.388 105.288ZM396.399 46.28V141H374.511V46.28H396.399Z" fill="#DEE5F5"/>
<path d="M429.669 62.152C425.829 62.152 422.672 61.0427 420.197 58.824C417.808 56.52 416.613 53.704 416.613 50.376C416.613 46.9627 417.808 44.1467 420.197 41.928C422.672 39.624 425.829 38.472 429.669 38.472C433.424 38.472 436.496 39.624 438.885 41.928C441.36 44.1467 442.597 46.9627 442.597 50.376C442.597 53.704 441.36 56.52 438.885 58.824C436.496 61.0427 433.424 62.152 429.669 62.152ZM440.549 69.576V141H418.661V69.576H440.549ZM491.867 142.024C485.638 142.024 480.091 140.957 475.227 138.824C470.363 136.691 466.523 133.789 463.707 130.12C460.891 126.365 459.312 122.184 458.971 117.576H480.603C480.859 120.051 482.011 122.056 484.059 123.592C486.107 125.128 488.624 125.896 491.611 125.896C494.342 125.896 496.432 125.384 497.883 124.36C499.419 123.251 500.187 121.843 500.187 120.136C500.187 118.088 499.12 116.595 496.987 115.656C494.854 114.632 491.398 113.523 486.619 112.328C481.499 111.133 477.232 109.896 473.819 108.616C470.406 107.251 467.462 105.16 464.987 102.344C462.512 99.4427 461.275 95.56 461.275 90.696C461.275 86.6 462.384 82.888 464.603 79.56C466.907 76.1467 470.235 73.4587 474.587 71.496C479.024 69.5333 484.272 68.552 490.331 68.552C499.291 68.552 506.331 70.7707 511.451 75.208C516.656 79.6453 519.643 85.5333 520.411 92.872H500.187C499.846 90.3973 498.736 88.4347 496.859 86.984C495.067 85.5333 492.678 84.808 489.691 84.808C487.131 84.808 485.168 85.32 483.803 86.344C482.438 87.2827 481.755 88.6053 481.755 90.312C481.755 92.36 482.822 93.896 484.955 94.92C487.174 95.944 490.587 96.968 495.195 97.992C500.486 99.3573 504.795 100.723 508.123 102.088C511.451 103.368 514.352 105.501 516.827 108.488C519.387 111.389 520.71 115.315 520.795 120.264C520.795 124.445 519.6 128.2 517.211 131.528C514.907 134.771 511.536 137.331 507.099 139.208C502.747 141.085 497.67 142.024 491.867 142.024ZM580.394 122.44V141H569.258C561.322 141 555.135 139.08 550.698 135.24C546.261 131.315 544.042 124.957 544.042 116.168V87.752H535.338V69.576H544.042V52.168H565.93V69.576H580.266V87.752H565.93V116.424C565.93 118.557 566.442 120.093 567.466 121.032C568.49 121.971 570.197 122.44 572.586 122.44H580.394Z" fill="#C393C2"/>
<defs>
<clipPath id="clip0_149_78">
<rect width="68" height="124" fill="white" transform="translate(0 37)"/>
</clipPath>
</defs>
</svg>
