<svg width="572" height="161" viewBox="0 0 572 161" fill="none" xmlns="http://www.w3.org/2000/svg">
<g clip-path="url(#clip0_149_78)">
<path d="M57.7949 48.2727L38.5299 37L19.265 48.2727V138.455L38.5299 149.727L57.7949 138.455V48.2727Z" fill="#DEE5F5"/>
<path d="M38.53 87.7273L28.8975 82.0909L9.63251 93.3636L19.265 99L38.53 87.7273Z" fill="#C393C2"/>
<path d="M0 59.5455L9.63249 53.9091L28.8975 65.1818V155.364L19.265 161L0 149.727V59.5455Z" fill="#5E7BAA"/>
<path d="M0 59.5454V149.727L19.265 161V70.8182L0 59.5454Z" fill="#C393C2"/>
<path d="M38.53 149.727V59.5455L57.7949 48.2727V138.455L38.53 149.727Z" fill="#C393C2"/>
<path d="M19.265 121.545L38.5299 110.273V87.7273L19.265 99V121.545Z" fill="#C393C2"/>
</g>
<path d="M160.553 51.144V141H138.665V104.008H104.617V141H82.7295V51.144H104.617V86.344H138.665V51.144H160.553ZM250.082 104.136C250.082 106.184 249.954 108.317 249.698 110.536H200.162C200.504 114.973 201.912 118.387 204.386 120.776C206.946 123.08 210.061 124.232 213.73 124.232C219.192 124.232 222.989 121.928 225.122 117.32H248.418C247.224 122.013 245.048 126.237 241.89 129.992C238.818 133.747 234.936 136.691 230.242 138.824C225.549 140.957 220.301 142.024 214.498 142.024C207.501 142.024 201.272 140.531 195.81 137.544C190.349 134.557 186.082 130.291 183.01 124.744C179.938 119.197 178.402 112.712 178.402 105.288C178.402 97.864 179.896 91.3787 182.882 85.832C185.954 80.2853 190.221 76.0187 195.682 73.032C201.144 70.0453 207.416 68.552 214.498 68.552C221.41 68.552 227.554 70.0027 232.93 72.904C238.306 75.8053 242.488 79.944 245.474 85.32C248.546 90.696 250.082 96.968 250.082 104.136ZM227.682 98.376C227.682 94.6213 226.402 91.6347 223.842 89.416C221.282 87.1973 218.082 86.088 214.242 86.088C210.573 86.088 207.458 87.1547 204.898 89.288C202.424 91.4213 200.888 94.4507 200.29 98.376H227.682ZM263.677 105.16C263.677 97.8213 265.043 91.3787 267.773 85.832C270.589 80.2853 274.387 76.0187 279.165 73.032C283.944 70.0453 289.277 68.552 295.165 68.552C300.2 68.552 304.595 69.576 308.349 71.624C312.189 73.672 315.133 76.36 317.181 79.688V69.576H339.069V141H317.181V130.888C315.048 134.216 312.061 136.904 308.221 138.952C304.467 141 300.072 142.024 295.037 142.024C289.235 142.024 283.944 140.531 279.165 137.544C274.387 134.472 270.589 130.163 267.773 124.616C265.043 118.984 263.677 112.499 263.677 105.16ZM317.181 105.288C317.181 99.8267 315.645 95.5173 312.573 92.36C309.587 89.2027 305.917 87.624 301.565 87.624C297.213 87.624 293.501 89.2027 290.429 92.36C287.443 95.432 285.949 99.6987 285.949 105.16C285.949 110.621 287.443 114.973 290.429 118.216C293.501 121.373 297.213 122.952 301.565 122.952C305.917 122.952 309.587 121.373 312.573 118.216C315.645 115.059 317.181 110.749 317.181 105.288ZM383.192 46.28V141H361.304V46.28H383.192Z" fill="#DEE5F5"/>
<path d="M416.462 62.152C412.622 62.152 409.465 61.0427 406.99 58.824C404.601 56.52 403.406 53.704 403.406 50.376C403.406 46.9627 404.601 44.1467 406.99 41.928C409.465 39.624 412.622 38.472 416.462 38.472C420.217 38.472 423.289 39.624 425.678 41.928C428.153 44.1467 429.39 46.9627 429.39 50.376C429.39 53.704 428.153 56.52 425.678 58.824C423.289 61.0427 420.217 62.152 416.462 62.152ZM427.342 69.576V141H405.454V69.576H427.342ZM478.66 142.024C472.431 142.024 466.884 140.957 462.02 138.824C457.156 136.691 453.316 133.789 450.5 130.12C447.684 126.365 446.106 122.184 445.764 117.576H467.396C467.652 120.051 468.804 122.056 470.852 123.592C472.9 125.128 475.418 125.896 478.404 125.896C481.135 125.896 483.226 125.384 484.676 124.36C486.212 123.251 486.98 121.843 486.98 120.136C486.98 118.088 485.914 116.595 483.78 115.656C481.647 114.632 478.191 113.523 473.412 112.328C468.292 111.133 464.026 109.896 460.612 108.616C457.199 107.251 454.255 105.16 451.78 102.344C449.306 99.4427 448.068 95.56 448.068 90.696C448.068 86.6 449.178 82.888 451.396 79.56C453.7 76.1467 457.028 73.4587 461.38 71.496C465.818 69.5333 471.066 68.552 477.124 68.552C486.084 68.552 493.124 70.7707 498.244 75.208C503.45 79.6453 506.436 85.5333 507.204 92.872H486.98C486.639 90.3973 485.53 88.4347 483.652 86.984C481.86 85.5333 479.471 84.808 476.484 84.808C473.924 84.808 471.962 85.32 470.596 86.344C469.231 87.2827 468.548 88.6053 468.548 90.312C468.548 92.36 469.615 93.896 471.748 94.92C473.967 95.944 477.38 96.968 481.988 97.992C487.279 99.3573 491.588 100.723 494.916 102.088C498.244 103.368 501.146 105.501 503.62 108.488C506.18 111.389 507.503 115.315 507.588 120.264C507.588 124.445 506.394 128.2 504.004 131.528C501.7 134.771 498.33 137.331 493.892 139.208C489.54 141.085 484.463 142.024 478.66 142.024ZM567.187 122.44V141H556.051C548.115 141 541.929 139.08 537.491 135.24C533.054 131.315 530.835 124.957 530.835 116.168V87.752H522.131V69.576H530.835V52.168H552.723V69.576H567.059V87.752H552.723V116.424C552.723 118.557 553.235 120.093 554.259 121.032C555.283 121.971 556.99 122.44 559.379 122.44H567.187Z" fill="#C393C2"/>
<defs>
<clipPath id="clip0_149_78">
<rect width="57.7949" height="124" fill="white" transform="translate(0 37)"/>
</clipPath>
</defs>
</svg>
