<svg width="105" height="28" viewBox="0 0 105 28" fill="none" xmlns="http://www.w3.org/2000/svg">
<path d="M13.4 8.68223V22.7222H9.98V16.9422H4.66V22.7222H1.24V8.68223H4.66V14.1822H9.98V8.68223H13.4ZM27.3889 16.9622C27.3889 17.2822 27.3689 17.6156 27.3289 17.9622H19.5889C19.6422 18.6556 19.8622 19.1889 20.2489 19.5622C20.6489 19.9222 21.1356 20.1022 21.7089 20.1022C22.5622 20.1022 23.1556 19.7422 23.4889 19.0222H27.1289C26.9422 19.7556 26.6022 20.4156 26.1089 21.0022C25.6289 21.5889 25.0222 22.0489 24.2889 22.3822C23.5556 22.7156 22.7356 22.8822 21.8289 22.8822C20.7356 22.8822 19.7622 22.6489 18.9089 22.1822C18.0556 21.7156 17.3889 21.0489 16.9089 20.1822C16.4289 19.3156 16.1889 18.3022 16.1889 17.1422C16.1889 15.9822 16.4222 14.9689 16.8889 14.1022C17.3689 13.2356 18.0356 12.5689 18.8889 12.1022C19.7422 11.6356 20.7222 11.4022 21.8289 11.4022C22.9089 11.4022 23.8689 11.6289 24.7089 12.0822C25.5489 12.5356 26.2022 13.1822 26.6689 14.0222C27.1489 14.8622 27.3889 15.8422 27.3889 16.9622ZM23.8889 16.0622C23.8889 15.4756 23.6889 15.0089 23.2889 14.6622C22.8889 14.3156 22.3889 14.1422 21.7889 14.1422C21.2156 14.1422 20.7289 14.3089 20.3289 14.6422C19.9422 14.9756 19.7022 15.4489 19.6089 16.0622H23.8889ZM29.5131 17.1222C29.5131 15.9756 29.7265 14.9689 30.1531 14.1022C30.5931 13.2356 31.1865 12.5689 31.9331 12.1022C32.6798 11.6356 33.5131 11.4022 34.4331 11.4022C35.2198 11.4022 35.9065 11.5622 36.4931 11.8822C37.0931 12.2022 37.5531 12.6222 37.8731 13.1422V11.5622H41.2931V22.7222H37.8731V21.1422C37.5398 21.6622 37.0731 22.0822 36.4731 22.4022C35.8865 22.7222 35.1998 22.8822 34.4131 22.8822C33.5065 22.8822 32.6798 22.6489 31.9331 22.1822C31.1865 21.7022 30.5931 21.0289 30.1531 20.1622C29.7265 19.2822 29.5131 18.2689 29.5131 17.1222ZM37.8731 17.1422C37.8731 16.2889 37.6331 15.6156 37.1531 15.1222C36.6865 14.6289 36.1131 14.3822 35.4331 14.3822C34.7531 14.3822 34.1731 14.6289 33.6931 15.1222C33.2265 15.6022 32.9931 16.2689 32.9931 17.1222C32.9931 17.9756 33.2265 18.6556 33.6931 19.1622C34.1731 19.6556 34.7531 19.9022 35.4331 19.9022C36.1131 19.9022 36.6865 19.6556 37.1531 19.1622C37.6331 18.6689 37.8731 17.9956 37.8731 17.1422ZM48.1873 7.92223V22.7222H44.7673V7.92223H48.1873Z" fill="#5D7AAA"/>
<path d="M53.3858 10.4022C52.7858 10.4022 52.2924 10.2289 51.9058 9.88223C51.5324 9.52223 51.3458 9.08223 51.3458 8.56223C51.3458 8.0289 51.5324 7.5889 51.9058 7.24223C52.2924 6.88223 52.7858 6.70223 53.3858 6.70223C53.9724 6.70223 54.4524 6.88223 54.8258 7.24223C55.2124 7.5889 55.4058 8.0289 55.4058 8.56223C55.4058 9.08223 55.2124 9.52223 54.8258 9.88223C54.4524 10.2289 53.9724 10.4022 53.3858 10.4022ZM55.0858 11.5622V22.7222H51.6658V11.5622H55.0858ZM63.1042 22.8822C62.1309 22.8822 61.2642 22.7156 60.5042 22.3822C59.7442 22.0489 59.1442 21.5956 58.7042 21.0222C58.2642 20.4356 58.0176 19.7822 57.9642 19.0622H61.3442C61.3842 19.4489 61.5642 19.7622 61.8842 20.0022C62.2042 20.2422 62.5976 20.3622 63.0642 20.3622C63.4909 20.3622 63.8176 20.2822 64.0442 20.1222C64.2842 19.9489 64.4042 19.7289 64.4042 19.4622C64.4042 19.1422 64.2376 18.9089 63.9042 18.7622C63.5709 18.6022 63.0309 18.4289 62.2842 18.2422C61.4842 18.0556 60.8176 17.8622 60.2842 17.6622C59.7509 17.4489 59.2909 17.1222 58.9042 16.6822C58.5176 16.2289 58.3242 15.6222 58.3242 14.8622C58.3242 14.2222 58.4976 13.6422 58.8442 13.1222C59.2042 12.5889 59.7242 12.1689 60.4042 11.8622C61.0976 11.5556 61.9176 11.4022 62.8642 11.4022C64.2642 11.4022 65.3642 11.7489 66.1642 12.4422C66.9776 13.1356 67.4442 14.0556 67.5642 15.2022H64.4042C64.3509 14.8156 64.1776 14.5089 63.8842 14.2822C63.6042 14.0556 63.2309 13.9422 62.7642 13.9422C62.3642 13.9422 62.0576 14.0222 61.8442 14.1822C61.6309 14.3289 61.5242 14.5356 61.5242 14.8022C61.5242 15.1222 61.6909 15.3622 62.0242 15.5222C62.3709 15.6822 62.9042 15.8422 63.6242 16.0022C64.4509 16.2156 65.1242 16.4289 65.6442 16.6422C66.1642 16.8422 66.6176 17.1756 67.0042 17.6422C67.4042 18.0956 67.6109 18.7089 67.6242 19.4822C67.6242 20.1356 67.4376 20.7222 67.0642 21.2422C66.7042 21.7489 66.1776 22.1489 65.4842 22.4422C64.8042 22.7356 64.0109 22.8822 63.1042 22.8822ZM76.9366 19.8222V22.7222H75.1966C73.9566 22.7222 72.9899 22.4222 72.2966 21.8222C71.6032 21.2089 71.2566 20.2156 71.2566 18.8422V14.4022H69.8966V11.5622H71.2566V8.84223H74.6766V11.5622H76.9166V14.4022H74.6766V18.8822C74.6766 19.2156 74.7566 19.4556 74.9166 19.6022C75.0766 19.7489 75.3432 19.8222 75.7166 19.8222H76.9366ZM81.4416 22.8822C80.8416 22.8822 80.3482 22.7089 79.9616 22.3622C79.5882 22.0022 79.4016 21.5622 79.4016 21.0422C79.4016 20.5089 79.5882 20.0622 79.9616 19.7022C80.3482 19.3422 80.8416 19.1622 81.4416 19.1622C82.0282 19.1622 82.5082 19.3422 82.8816 19.7022C83.2682 20.0622 83.4616 20.5089 83.4616 21.0422C83.4616 21.5622 83.2682 22.0022 82.8816 22.3622C82.5082 22.7089 82.0282 22.8822 81.4416 22.8822Z" fill="#111111"/>
</svg>
