<svg width="24" height="22" viewBox="0 0 24 22" fill="none" xmlns="http://www.w3.org/2000/svg">
<path fill-rule="evenodd" clip-rule="evenodd" d="M12 1.08325C8.14473 1.08325 4.81006 3.76881 3.98824 7.53548L2.86857 12.6673C2.44326 14.6166 3.48172 16.5894 5.32944 17.3421L5.69917 17.4928C6.29102 17.7339 6.89325 17.9397 7.50281 18.1101C8.34274 19.8271 10.0876 20.9166 12 20.9166C13.9125 20.9166 15.6573 19.8271 16.4972 18.1101C17.1068 17.9397 17.709 17.7339 18.3008 17.4928L18.6706 17.3421C20.5183 16.5894 21.5568 14.6166 21.1314 12.6673L20.0118 7.53547C19.19 3.7688 15.8553 1.08325 12 1.08325ZM16.0763 16.6703C15.8965 16.6519 15.7165 16.6997 15.5701 16.8019C13.2242 17.3687 10.7758 17.3687 8.42992 16.8019C8.28352 16.6997 8.10349 16.6519 7.92368 16.6703C7.36308 16.5142 6.80928 16.3253 6.26512 16.1036L5.89538 15.953C4.7231 15.4754 4.06426 14.2238 4.33409 12.9871L5.45377 7.85523C6.12526 4.77756 8.84994 2.58325 12 2.58325C15.1501 2.58325 17.8748 4.77756 18.5462 7.85522L19.6659 12.9871C19.9358 14.2238 19.2769 15.4754 18.1046 15.953L17.7349 16.1036C17.1907 16.3253 16.6369 16.5142 16.0763 16.6703ZM9.71512 18.57C11.2311 18.7794 12.7689 18.7794 14.2849 18.57C13.6602 19.1065 12.854 19.4166 12 19.4166C11.1461 19.4166 10.3398 19.1065 9.71512 18.57Z" fill="#22272F"/>
</svg>
