<svg width="24" height="24" viewBox="0 0 24 24" fill="none" xmlns="http://www.w3.org/2000/svg">
<path fill-rule="evenodd" clip-rule="evenodd" d="M20.5525 7.79916C19.8967 7.74967 19.1588 7.74983 18.4085 7.75L18.278 7.75002H13.0826L12.9629 7.75001C11.8525 7.74987 10.8208 7.74974 9.96803 7.85622C9.02232 7.97429 8.02691 8.24944 7.14779 8.99416C6.26868 9.73889 5.83363 10.6755 5.56169 11.589C5.31646 12.4126 5.14699 13.4302 4.96457 14.5256L4.96457 14.5256L4.94489 14.6437L3.78049 21.6301C3.73343 21.9125 3.74118 22.1977 3.79979 22.4713C3.24574 22.3149 2.76042 22.0636 2.34823 21.6514C1.74631 21.0495 1.48742 20.2916 1.3664 19.3915C1.24984 18.5246 1.24986 17.4223 1.24988 16.0547V16.0547V16.0547V16.0546V15.9998V6.94404V6.90927V6.90924V6.90922V6.90919C1.24987 6.03049 1.24987 5.32179 1.30032 4.74946C1.3523 4.15972 1.46226 3.64365 1.72528 3.17234C2.06416 2.5651 2.56521 2.06404 3.17246 1.72516C3.64376 1.46215 4.15984 1.35219 4.74958 1.3002C5.32191 1.24975 6.03061 1.24976 6.90932 1.24976L6.90932 1.24976L6.90939 1.24976L6.94415 1.24976H7.76381L7.80773 1.24976C8.13434 1.24971 8.35912 1.24968 8.57251 1.27412C9.68213 1.40122 10.6773 2.0163 11.2873 2.95192C11.4045 3.13184 11.505 3.33288 11.651 3.62497L11.651 3.62503L11.6511 3.62505L11.6707 3.66435C11.8438 4.01049 11.9045 4.12944 11.9691 4.22847C12.335 4.78985 12.9322 5.15889 13.5979 5.23515C13.7154 5.2486 13.849 5.24976 14.236 5.24976H15.9996L16.1155 5.24974C16.9336 5.24947 17.4919 5.24928 17.9707 5.3776C19.1869 5.70358 20.1529 6.61615 20.5525 7.79916ZM22.7373 10.2225C22.2684 9.66898 21.6329 9.44646 20.9242 9.34587C20.2485 9.24997 19.3824 9.24999 18.335 9.25002L18.278 9.25003H13.0826L13.0332 9.25002H13.0331C11.8614 9.25001 10.9122 9.24999 10.1539 9.34467C9.36411 9.44327 8.69014 9.65348 8.11736 10.1387C7.54457 10.6239 7.22643 11.2542 6.99933 12.017C6.78127 12.7494 6.62523 13.6857 6.43262 14.8415L6.43262 14.8415L6.42448 14.8903L5.26009 21.8767C5.22384 22.0942 5.28511 22.3166 5.42762 22.4848C5.57012 22.653 5.77942 22.75 5.99988 22.75H15.9171H15.9666C17.1383 22.75 18.0876 22.7501 18.8459 22.6554C19.6357 22.5568 20.3096 22.3466 20.8824 21.8614C21.4552 21.3761 21.7733 20.7459 22.0004 19.9831C22.2185 19.2506 22.3745 18.3143 22.5672 17.1585L22.5753 17.1097L22.9634 14.7809L22.9728 14.7248C23.145 13.6916 23.2874 12.8373 23.3039 12.155C23.3212 11.4394 23.2062 10.776 22.7373 10.2225Z" fill="#22272F"/>
</svg>
