<svg width="24" height="24" viewBox="0 0 24 24" fill="none" xmlns="http://www.w3.org/2000/svg">
<path fill-rule="evenodd" clip-rule="evenodd" d="M14.25 20C14.25 21.5187 15.4812 22.75 17 22.75C20.1756 22.75 22.75 20.1756 22.75 17V11.845L22.75 11.7298C22.7501 10.4279 22.7502 9.62658 22.5435 8.87593C22.3605 8.21185 22.0597 7.58604 21.6555 7.02834C21.1985 6.39792 20.5727 5.89742 19.5559 5.08425L19.466 5.01235L17.466 3.41235L17.4431 3.39402C16.5707 2.6961 15.884 2.14674 15.2918 1.74022C14.6866 1.32479 14.1387 1.02877 13.5331 0.861235C12.5298 0.58369 11.4701 0.58369 10.4668 0.861235C9.86123 1.02877 9.31336 1.32479 8.70813 1.74022C8.11588 2.14673 7.42919 2.6961 6.5568 3.39401L6.53387 3.41235L4.53388 5.01235L4.44397 5.08426L4.44396 5.08427C3.42723 5.89743 2.80144 6.39793 2.34446 7.02834C1.94019 7.58604 1.63941 8.21185 1.45647 8.87593C1.24967 9.62659 1.24978 10.4279 1.24995 11.7298L1.24996 11.845V17C1.24996 20.1756 3.82432 22.75 6.99996 22.75C8.51874 22.75 9.74996 21.5187 9.74996 20V15.9999C9.74996 14.7573 10.7573 13.7499 12 13.7499C13.2426 13.7499 14.25 14.7573 14.25 15.9999V20Z" fill="#22272F"/>
</svg>
