<svg width="1153" height="318" viewBox="0 0 1153 318" fill="none" xmlns="http://www.w3.org/2000/svg">
<path d="M173.109 34.144L149.685 124H123.189L108.853 64.864L94.005 124H67.509L44.725 34.144H68.149L81.077 99.552L97.077 34.144H121.141L136.501 99.552L149.557 34.144H173.109ZM257.814 87.136C257.814 89.184 257.686 91.3173 257.43 93.536H207.894C208.235 97.9733 209.643 101.387 212.118 103.776C214.678 106.08 217.793 107.232 221.462 107.232C226.923 107.232 230.721 104.928 232.854 100.32H256.15C254.955 105.013 252.779 109.237 249.622 112.992C246.55 116.747 242.667 119.691 237.974 121.824C233.281 123.957 228.033 125.024 222.23 125.024C215.233 125.024 209.003 123.531 203.542 120.544C198.081 117.557 193.814 113.291 190.742 107.744C187.67 102.197 186.134 95.712 186.134 88.288C186.134 80.864 187.627 74.3787 190.614 68.832C193.686 63.2853 197.953 59.0187 203.414 56.032C208.875 53.0453 215.147 51.552 222.23 51.552C229.142 51.552 235.286 53.0027 240.662 55.904C246.038 58.8053 250.219 62.944 253.206 68.32C256.278 73.696 257.814 79.968 257.814 87.136ZM235.414 81.376C235.414 77.6213 234.134 74.6347 231.574 72.416C229.014 70.1973 225.814 69.088 221.974 69.088C218.305 69.088 215.19 70.1547 212.63 72.288C210.155 74.4213 208.619 77.4507 208.022 81.376H235.414ZM305.574 78.944C305.574 70.0693 307.494 62.176 311.334 55.264C315.174 48.2667 320.507 42.848 327.334 39.008C334.246 35.0827 342.054 33.12 350.758 33.12C361.425 33.12 370.555 35.936 378.15 41.568C385.745 47.2 390.822 54.88 393.382 64.608H369.318C367.526 60.8533 364.966 57.9947 361.638 56.032C358.395 54.0693 354.683 53.088 350.502 53.088C343.761 53.088 338.299 55.4347 334.118 60.128C329.937 64.8213 327.846 71.0933 327.846 78.944C327.846 86.7947 329.937 93.0667 334.118 97.76C338.299 102.453 343.761 104.8 350.502 104.8C354.683 104.8 358.395 103.819 361.638 101.856C364.966 99.8933 367.526 97.0347 369.318 93.28H393.382C390.822 103.008 385.745 110.688 378.15 116.32C370.555 121.867 361.425 124.64 350.758 124.64C342.054 124.64 334.246 122.72 327.334 118.88C320.507 114.955 315.174 109.536 311.334 102.624C307.494 95.712 305.574 87.8187 305.574 78.944ZM408.834 88.16C408.834 80.8213 410.199 74.3787 412.93 68.832C415.746 63.2853 419.543 59.0187 424.322 56.032C429.101 53.0453 434.434 51.552 440.322 51.552C445.357 51.552 449.751 52.576 453.506 54.624C457.346 56.672 460.29 59.36 462.338 62.688V52.576H484.226V124H462.338V113.888C460.205 117.216 457.218 119.904 453.378 121.952C449.623 124 445.229 125.024 440.194 125.024C434.391 125.024 429.101 123.531 424.322 120.544C419.543 117.472 415.746 113.163 412.93 107.616C410.199 101.984 408.834 95.4987 408.834 88.16ZM462.338 88.288C462.338 82.8267 460.802 78.5173 457.73 75.36C454.743 72.2027 451.074 70.624 446.722 70.624C442.37 70.624 438.658 72.2027 435.586 75.36C432.599 78.432 431.106 82.6987 431.106 88.16C431.106 93.6213 432.599 97.9733 435.586 101.216C438.658 104.373 442.37 105.952 446.722 105.952C451.074 105.952 454.743 104.373 457.73 101.216C460.802 98.0587 462.338 93.7493 462.338 88.288ZM528.349 64.48C530.909 60.5547 534.109 57.4827 537.949 55.264C541.789 52.96 546.056 51.808 550.749 51.808V74.976H544.733C539.272 74.976 535.176 76.1707 532.445 78.56C529.714 80.864 528.349 84.96 528.349 90.848V124H506.461V52.576H528.349V64.48ZM634.939 87.136C634.939 89.184 634.811 91.3173 634.555 93.536H585.019C585.36 97.9733 586.768 101.387 589.243 103.776C591.803 106.08 594.918 107.232 598.587 107.232C604.048 107.232 607.846 104.928 609.979 100.32H633.275C632.08 105.013 629.904 109.237 626.747 112.992C623.675 116.747 619.792 119.691 615.099 121.824C610.406 123.957 605.158 125.024 599.355 125.024C592.358 125.024 586.128 123.531 580.667 120.544C575.206 117.557 570.939 113.291 567.867 107.744C564.795 102.197 563.259 95.712 563.259 88.288C563.259 80.864 564.752 74.3787 567.739 68.832C570.811 63.2853 575.078 59.0187 580.539 56.032C586 53.0453 592.272 51.552 599.355 51.552C606.267 51.552 612.411 53.0027 617.787 55.904C623.163 58.8053 627.344 62.944 630.331 68.32C633.403 73.696 634.939 79.968 634.939 87.136ZM612.539 81.376C612.539 77.6213 611.259 74.6347 608.699 72.416C606.139 70.1973 602.939 69.088 599.099 69.088C595.43 69.088 592.315 70.1547 589.755 72.288C587.28 74.4213 585.744 77.4507 585.147 81.376H612.539ZM742.347 108.128H708.811L703.435 124H680.523L713.035 34.144H738.379L770.891 124H747.723L742.347 108.128ZM736.715 91.232L725.579 58.336L714.571 91.232H736.715ZM809.074 62.688C811.122 59.36 814.066 56.672 817.906 54.624C821.746 52.576 826.141 51.552 831.09 51.552C836.978 51.552 842.311 53.0453 847.09 56.032C851.869 59.0187 855.623 63.2853 858.354 68.832C861.17 74.3787 862.578 80.8213 862.578 88.16C862.578 95.4987 861.17 101.984 858.354 107.616C855.623 113.163 851.869 117.472 847.09 120.544C842.311 123.531 836.978 125.024 831.09 125.024C826.055 125.024 821.661 124.043 817.906 122.08C814.151 120.032 811.207 117.344 809.074 114.016V124H787.186V29.28H809.074V62.688ZM840.306 88.16C840.306 82.6987 838.77 78.432 835.698 75.36C832.711 72.2027 828.999 70.624 824.562 70.624C820.21 70.624 816.498 72.2027 813.426 75.36C810.439 78.5173 808.946 82.8267 808.946 88.288C808.946 93.7493 810.439 98.0587 813.426 101.216C816.498 104.373 820.21 105.952 824.562 105.952C828.914 105.952 832.626 104.373 835.698 101.216C838.77 97.9733 840.306 93.6213 840.306 88.16ZM912.973 125.024C905.976 125.024 899.661 123.531 894.029 120.544C888.482 117.557 884.088 113.291 880.845 107.744C877.688 102.197 876.109 95.712 876.109 88.288C876.109 80.9493 877.73 74.5067 880.973 68.96C884.216 63.328 888.653 59.0187 894.285 56.032C899.917 53.0453 906.232 51.552 913.229 51.552C920.226 51.552 926.541 53.0453 932.173 56.032C937.805 59.0187 942.242 63.328 945.485 68.96C948.728 74.5067 950.349 80.9493 950.349 88.288C950.349 95.6267 948.685 102.112 945.357 107.744C942.114 113.291 937.634 117.557 931.917 120.544C926.285 123.531 919.97 125.024 912.973 125.024ZM912.973 106.08C917.154 106.08 920.696 104.544 923.597 101.472C926.584 98.4 928.077 94.0053 928.077 88.288C928.077 82.5707 926.626 78.176 923.725 75.104C920.909 72.032 917.41 70.496 913.229 70.496C908.962 70.496 905.421 72.032 902.605 75.104C899.789 78.0907 898.381 82.4853 898.381 88.288C898.381 94.0053 899.746 98.4 902.477 101.472C905.293 104.544 908.792 106.08 912.973 106.08ZM1038.89 52.576V124H1017V114.272C1014.78 117.429 1011.75 119.989 1007.91 121.952C1004.16 123.829 999.977 124.768 995.369 124.768C989.908 124.768 985.086 123.573 980.905 121.184C976.724 118.709 973.481 115.168 971.177 110.56C968.873 105.952 967.721 100.533 967.721 94.304V52.576H989.481V91.36C989.481 96.1387 990.718 99.8507 993.193 102.496C995.668 105.141 998.996 106.464 1003.18 106.464C1007.44 106.464 1010.81 105.141 1013.29 102.496C1015.76 99.8507 1017 96.1387 1017 91.36V52.576H1038.89ZM1100.82 105.44V124H1089.68C1081.75 124 1075.56 122.08 1071.12 118.24C1066.69 114.315 1064.47 107.957 1064.47 99.168V70.752H1055.76V52.576H1064.47V35.168H1086.35V52.576H1100.69V70.752H1086.35V99.424C1086.35 101.557 1086.87 103.093 1087.89 104.032C1088.91 104.971 1090.62 105.44 1093.01 105.44H1100.82ZM244.055 191.144L212.951 251.304V281H191.062V251.304L159.959 191.144H184.791L202.199 228.776L219.479 191.144H244.055ZM291.785 282.024C284.788 282.024 278.473 280.531 272.841 277.544C267.295 274.557 262.9 270.291 259.657 264.744C256.5 259.197 254.921 252.712 254.921 245.288C254.921 237.949 256.543 231.507 259.785 225.96C263.028 220.328 267.465 216.019 273.097 213.032C278.729 210.045 285.044 208.552 292.041 208.552C299.039 208.552 305.353 210.045 310.985 213.032C316.617 216.019 321.055 220.328 324.298 225.96C327.54 231.507 329.161 237.949 329.161 245.288C329.161 252.627 327.497 259.112 324.169 264.744C320.927 270.291 316.447 274.557 310.729 277.544C305.097 280.531 298.783 282.024 291.785 282.024ZM291.785 263.08C295.967 263.08 299.508 261.544 302.409 258.472C305.396 255.4 306.889 251.005 306.889 245.288C306.889 239.571 305.439 235.176 302.537 232.104C299.721 229.032 296.223 227.496 292.041 227.496C287.775 227.496 284.233 229.032 281.417 232.104C278.601 235.091 277.193 239.485 277.193 245.288C277.193 251.005 278.559 255.4 281.289 258.472C284.105 261.544 287.604 263.08 291.785 263.08ZM417.701 209.576V281H395.813V271.272C393.595 274.429 390.565 276.989 386.725 278.952C382.971 280.829 378.789 281.768 374.181 281.768C368.72 281.768 363.899 280.573 359.717 278.184C355.536 275.709 352.293 272.168 349.989 267.56C347.685 262.952 346.533 257.533 346.533 251.304V209.576H368.293V248.36C368.293 253.139 369.531 256.851 372.005 259.496C374.48 262.141 377.808 263.464 381.989 263.464C386.256 263.464 389.627 262.141 392.101 259.496C394.576 256.851 395.813 253.139 395.813 248.36V209.576H417.701ZM461.712 221.48C464.272 217.555 467.472 214.483 471.312 212.264C475.152 209.96 479.418 208.808 484.112 208.808V231.976H478.096C472.634 231.976 468.538 233.171 465.808 235.56C463.077 237.864 461.712 241.96 461.712 247.848V281H439.824V209.576H461.712V221.48Z" fill="#DEE5F5"/>
<path d="M612.323 191.144V281H590.435V244.008H556.387V281H534.499V191.144H556.387V226.344H590.435V191.144H612.323ZM701.852 244.136C701.852 246.184 701.724 248.317 701.468 250.536H651.932C652.273 254.973 653.681 258.387 656.156 260.776C658.716 263.08 661.83 264.232 665.5 264.232C670.961 264.232 674.758 261.928 676.892 257.32H700.188C698.993 262.013 696.817 266.237 693.66 269.992C690.588 273.747 686.705 276.691 682.012 278.824C677.318 280.957 672.07 282.024 666.268 282.024C659.27 282.024 653.041 280.531 647.58 277.544C642.118 274.557 637.852 270.291 634.78 264.744C631.708 259.197 630.172 252.712 630.172 245.288C630.172 237.864 631.665 231.379 634.652 225.832C637.724 220.285 641.99 216.019 647.452 213.032C652.913 210.045 659.185 208.552 666.268 208.552C673.18 208.552 679.324 210.003 684.7 212.904C690.076 215.805 694.257 219.944 697.244 225.32C700.316 230.696 701.852 236.968 701.852 244.136ZM679.452 238.376C679.452 234.621 678.172 231.635 675.612 229.416C673.052 227.197 669.852 226.088 666.012 226.088C662.342 226.088 659.228 227.155 656.668 229.288C654.193 231.421 652.657 234.451 652.06 238.376H679.452ZM715.446 245.16C715.446 237.821 716.812 231.379 719.542 225.832C722.358 220.285 726.156 216.019 730.934 213.032C735.713 210.045 741.046 208.552 746.934 208.552C751.969 208.552 756.364 209.576 760.118 211.624C763.958 213.672 766.902 216.36 768.95 219.688V209.576H790.838V281H768.95V270.888C766.817 274.216 763.83 276.904 759.99 278.952C756.236 281 751.841 282.024 746.806 282.024C741.004 282.024 735.713 280.531 730.934 277.544C726.156 274.472 722.358 270.163 719.542 264.616C716.812 258.984 715.446 252.499 715.446 245.16ZM768.95 245.288C768.95 239.827 767.414 235.517 764.342 232.36C761.356 229.203 757.686 227.624 753.334 227.624C748.982 227.624 745.27 229.203 742.198 232.36C739.212 235.432 737.718 239.699 737.718 245.16C737.718 250.621 739.212 254.973 742.198 258.216C745.27 261.373 748.982 262.952 753.334 262.952C757.686 262.952 761.356 261.373 764.342 258.216C767.414 255.059 768.95 250.749 768.95 245.288ZM834.962 186.28V281H813.074V186.28H834.962ZM897.031 262.44V281H885.895C877.959 281 871.773 279.08 867.335 275.24C862.898 271.315 860.679 264.957 860.679 256.168V227.752H851.975V209.576H860.679V192.168H882.567V209.576H896.903V227.752H882.567V256.424C882.567 258.557 883.079 260.093 884.103 261.032C885.127 261.971 886.834 262.44 889.223 262.44H897.031ZM959.528 208.808C967.72 208.808 974.29 211.539 979.24 217C984.189 222.376 986.664 229.8 986.664 239.272V281H964.904V242.216C964.904 237.437 963.666 233.725 961.192 231.08C958.717 228.435 955.389 227.112 951.208 227.112C947.026 227.112 943.698 228.435 941.224 231.08C938.749 233.725 937.512 237.437 937.512 242.216V281H915.624V186.28H937.512V219.176C939.73 216.019 942.76 213.501 946.6 211.624C950.44 209.747 954.749 208.808 959.528 208.808Z" fill="#C393C2"/>
</svg>
