<svg width="24" height="24" viewBox="0 0 24 24" fill="none" xmlns="http://www.w3.org/2000/svg">
<g clip-path="url(#clip0_104_194)">
<path d="M2.85869 20.4947C2.9475 20.4145 3.06266 20.3695 3.18237 20.3684H20.6755C20.8396 20.3683 20.9976 20.4303 21.1176 20.5421L23.5342 22.7053C23.629 22.7921 23.7711 22.9981 23.7711 23.1324C23.7711 23.2824 23.6132 23.5429 23.2374 23.6637L0.63158 23.6368C0.280264 23.321 0.30158 23.1316 0.30158 22.9026C0.30158 22.7447 0.469738 22.5868 0.588159 22.4684L2.85869 20.4947Z" fill="white"/>
<path d="M19.2434 11.3298C17.2019 14.7727 12.6908 21.1422 12.4713 21.4911C12.2037 21.9119 11.6534 21.8985 11.4103 21.5219C11.3369 21.4082 7.80003 16.1685 7.2995 15.3727C6.60792 14.2674 3.81003 11.7656 4.07529 7.24981C4.21424 4.89876 5.81213 2.76639 7.78582 1.49455C10.1116 0.104284 13.0137 -0.157821 15.4271 1.20244C19.6177 3.11771 20.5879 7.71323 19.2434 11.3298Z" fill="#22272F"/>
<path d="M11.8484 13.324C12.8742 13.3242 13.877 13.0201 14.7299 12.4503C15.5829 11.8805 16.2477 11.0706 16.6403 10.1229C17.033 9.17528 17.1357 8.13247 16.9356 7.1264C16.7356 6.12033 16.2416 5.1962 15.5163 4.47087C14.791 3.74554 13.8668 3.2516 12.8608 3.05152C11.8547 2.85144 10.8119 2.9542 9.86422 3.34682C8.91656 3.73944 8.10662 4.40427 7.53683 5.25724C6.96703 6.1102 6.66299 7.11298 6.66315 8.13875C6.66336 9.5139 7.20973 10.8327 8.18211 11.8051C9.15449 12.7774 10.4733 13.3238 11.8484 13.324Z" fill="white"/>
<path fill-rule="evenodd" clip-rule="evenodd" d="M11.7727 4.7605C11.3195 4.7605 10.9587 5.14497 10.9587 5.62892V7.1376C10.9586 7.17629 10.9437 7.21348 10.9172 7.24163C10.8907 7.26978 10.8544 7.28678 10.8158 7.28918H9.48002C9.02686 7.28918 8.66528 7.67366 8.66528 8.1576C8.66528 8.64155 9.02686 9.02602 9.48002 9.02602H10.8158C10.8544 9.02843 10.8907 9.04543 10.9172 9.07358C10.9437 9.10173 10.9586 9.13892 10.9587 9.1776V10.5987C10.9587 11.081 11.3195 11.4671 11.7727 11.4671C12.2258 11.4671 12.5874 11.0834 12.5874 10.5987V9.1776C12.5873 9.13886 12.6021 9.10157 12.6287 9.07338C12.6552 9.04519 12.6916 9.02824 12.7303 9.02602H14.1513C14.6045 9.02602 14.9661 8.64155 14.9661 8.1576C14.9661 7.67366 14.6045 7.28918 14.1513 7.28918H12.7303C12.6916 7.28696 12.6552 7.27002 12.6287 7.24183C12.6021 7.21364 12.5873 7.17634 12.5874 7.1376V5.62734C12.5874 5.14497 12.2266 4.7605 11.7727 4.7605Z" fill="#22272F"/>
<path fill-rule="evenodd" clip-rule="evenodd" d="M23.6841 22.35L21.3946 20.2974C21.2222 20.1394 20.9968 20.0521 20.763 20.0526H13.8267L19.012 12.2921C19.723 11.0495 20.0957 9.64217 20.0927 8.21053C20.0927 3.68684 16.4312 0 11.9248 0C7.41853 0 3.75695 3.67895 3.75695 8.21053C3.75108 9.91929 4.28091 11.5869 5.27195 12.9789H5.27985L10.0862 20.0526H3.23669C3.0032 20.0536 2.77828 20.1407 2.60511 20.2974L0.315636 22.35C0.173908 22.4782 0.0742554 22.6462 0.0297618 22.8321C-0.0147318 23.0179 -0.00198615 23.2128 0.0663253 23.3913C0.134637 23.5698 0.25532 23.7234 0.41253 23.832C0.569739 23.9407 0.756125 23.9992 0.947214 24H23.0604C23.2514 24.0021 23.4384 23.9447 23.5954 23.8357C23.7524 23.7268 23.8717 23.5718 23.9367 23.3921C24.0059 23.2134 24.0188 23.0177 23.9736 22.8315C23.9285 22.6452 23.8274 22.4772 23.6841 22.35ZM5.62721 12.3789C4.81492 11.1408 4.38395 9.69137 4.38774 8.21053C4.38774 4.03421 7.7659 0.631579 11.9248 0.631579C16.0838 0.631579 19.4612 4.02632 19.4612 8.21053C19.4635 9.56562 19.1011 10.8964 18.412 12.0632L12.2248 21.3079C12.1958 21.3505 12.157 21.3856 12.1117 21.4103C12.0664 21.435 12.0159 21.4486 11.9643 21.45C11.9122 21.4513 11.8608 21.4388 11.815 21.4138C11.7693 21.3889 11.7309 21.3524 11.7038 21.3079L5.63511 12.3789H5.62721ZM23.3525 23.1632C23.3324 23.2243 23.2931 23.2773 23.2405 23.3143C23.1879 23.3513 23.1247 23.3703 23.0604 23.3684H0.947214C0.882307 23.3686 0.818872 23.3491 0.765303 23.3124C0.711734 23.2758 0.670555 23.2237 0.647214 23.1632C0.624824 23.1033 0.621139 23.038 0.636645 22.976C0.652151 22.914 0.686119 22.8581 0.734057 22.8158L3.02353 20.7632C3.08399 20.7142 3.1589 20.6864 3.23669 20.6842H10.5133L11.1835 21.6711C11.2693 21.7997 11.3856 21.9052 11.5219 21.9781C11.6582 22.0511 11.8105 22.0892 11.9651 22.0892C12.1197 22.0892 12.272 22.0511 12.4083 21.9781C12.5447 21.9052 12.6609 21.7997 12.7467 21.6711L13.4091 20.6842H20.763C20.8417 20.6814 20.9183 20.7098 20.9762 20.7632L23.2656 22.8158C23.3136 22.8581 23.3475 22.914 23.363 22.976C23.3786 23.038 23.3749 23.1033 23.3525 23.1632ZM17.2893 8.13158C17.2893 7.05419 16.9698 6.001 16.3713 5.10518C15.7727 4.20937 14.9219 3.51117 13.9266 3.09887C12.9312 2.68657 11.8359 2.57869 10.7792 2.78888C9.72254 2.99907 8.75191 3.51788 7.99008 4.27971C7.22825 5.04154 6.70944 6.01216 6.49925 7.06885C6.28906 8.12554 6.39694 9.22082 6.80924 10.2162C7.22154 11.2116 7.91974 12.0623 8.81556 12.6609C9.71137 13.2595 10.7646 13.5789 11.842 13.5789C13.2858 13.576 14.6697 13.0012 15.6906 11.9802C16.7115 10.9593 17.2864 9.57541 17.2893 8.13158ZM7.02616 8.13158C7.02616 7.17911 7.3086 6.24802 7.83777 5.45607C8.36693 4.66412 9.11906 4.04687 9.99903 3.68237C10.879 3.31787 11.8473 3.22251 12.7815 3.40832C13.7156 3.59414 14.5737 4.0528 15.2472 4.7263C15.9207 5.3998 16.3794 6.25789 16.5652 7.19207C16.751 8.12624 16.6557 9.09453 16.2912 9.9745C15.9267 10.8545 15.3094 11.6066 14.5175 12.1358C13.7255 12.6649 12.7944 12.9474 11.842 12.9474C10.5654 12.9451 9.34185 12.437 8.43921 11.5343C7.53657 10.6317 7.02846 9.4081 7.02616 8.13158ZM13.0443 9.405V10.3674C13.0443 10.6957 12.9139 11.0105 12.6817 11.2427C12.4496 11.4748 12.1347 11.6053 11.8064 11.6053C11.4781 11.6053 11.1633 11.4748 10.9311 11.2427C10.699 11.0105 10.5685 10.6957 10.5685 10.3674V9.405H9.60616C9.27785 9.405 8.96299 9.27458 8.73084 9.04243C8.49869 8.81028 8.36827 8.49542 8.36827 8.16711C8.36827 7.8388 8.49869 7.52393 8.73084 7.29178C8.96299 7.05963 9.27785 6.92921 9.60616 6.92921H10.5685V5.89579C10.5685 5.56748 10.699 5.25262 10.9311 5.02047C11.1633 4.78832 11.4781 4.6579 11.8064 4.6579C12.1347 4.6579 12.4496 4.78832 12.6817 5.02047C12.9139 5.25262 13.0443 5.56748 13.0443 5.89579V6.92921H14.0777C14.4061 6.92921 14.7209 7.05963 14.9531 7.29178C15.1852 7.52393 15.3156 7.8388 15.3156 8.16711C15.3156 8.49542 15.1852 8.81028 14.9531 9.04243C14.7209 9.27458 14.4061 9.405 14.0777 9.405H13.0443ZM12.4127 10.3674V9.09C12.4127 9.00625 12.446 8.92593 12.5052 8.8667C12.5645 8.80748 12.6448 8.77421 12.7285 8.77421H14.077C14.238 8.77421 14.3924 8.71025 14.5062 8.59639C14.6201 8.48254 14.6841 8.32812 14.6841 8.16711C14.6841 8.00609 14.6201 7.85167 14.5062 7.73782C14.3924 7.62396 14.238 7.56 14.077 7.56H12.7293C12.708 7.56128 12.6865 7.55861 12.6662 7.55211C12.5955 7.5368 12.5321 7.49805 12.4862 7.44216C12.4404 7.38626 12.4147 7.3165 12.4135 7.24421V5.89579C12.4135 5.73478 12.3496 5.58036 12.2357 5.4665C12.1219 5.35265 11.9674 5.28868 11.8064 5.28868C11.6454 5.28868 11.491 5.35265 11.3771 5.4665C11.2633 5.58036 11.1993 5.73478 11.1993 5.89579V7.24421C11.1993 7.32796 11.166 7.40829 11.1068 7.46751C11.0476 7.52673 10.9673 7.56 10.8835 7.56H9.60616C9.44515 7.56 9.29073 7.62396 9.17687 7.73782C9.06302 7.85167 8.99906 8.00609 8.99906 8.16711C8.99906 8.32812 9.06302 8.48254 9.17687 8.59639C9.29073 8.71025 9.44515 8.77421 9.60616 8.77421H10.8835C10.9673 8.77421 11.0476 8.80748 11.1068 8.8667C11.166 8.92593 11.1993 9.00625 11.1993 9.09V10.3674C11.1993 10.5284 11.2633 10.6828 11.3771 10.7967C11.491 10.9105 11.6454 10.9745 11.8064 10.9745C11.9674 10.9745 12.1219 10.9105 12.2357 10.7967C12.3496 10.6828 12.4135 10.5284 12.4135 10.3674H12.4127Z" fill="#22272F"/>
</g>
<defs>
<clipPath id="clip0_104_194">
<rect width="24" height="24" fill="white"/>
</clipPath>
</defs>
</svg>
