<svg width="31" height="31" viewBox="0 0 31 31" fill="none" xmlns="http://www.w3.org/2000/svg">
<path d="M15.25 0C6.82846 0 0 7.00547 0 15.6381C0 22.5482 4.37076 28.4031 10.4299 30.4728C10.5149 30.4912 10.6016 30.5003 10.6886 30.5C11.2537 30.5 11.4715 30.0847 11.4715 29.7239C11.4715 29.3494 11.4579 28.3691 11.4511 27.0619C10.9467 27.1802 10.4306 27.2418 9.9125 27.2457C6.97824 27.2457 6.31105 24.9651 6.31105 24.9651C5.61663 23.1609 4.61585 22.6776 4.61585 22.6776C3.28828 21.7449 4.60904 21.7176 4.71116 21.7176H4.71797C6.24978 21.8538 7.05312 23.3379 7.05312 23.3379C7.81562 24.6723 8.83683 25.0468 9.74911 25.0468C10.3523 25.0347 10.9462 24.8955 11.492 24.6383C11.6281 23.6307 12.023 22.9431 12.4587 22.5482C9.07511 22.1533 5.51451 20.8122 5.51451 14.8211C5.51451 13.1123 6.10681 11.7166 7.08036 10.6273C6.92377 10.2325 6.39955 8.63939 7.23013 6.48806C7.34154 6.4614 7.45605 6.44995 7.57054 6.45402C8.12199 6.45402 9.36786 6.66506 11.4239 8.09475C13.9221 7.39578 16.5643 7.39578 19.0625 8.09475C21.1185 6.66506 22.3644 6.45402 22.9158 6.45402C23.0303 6.44995 23.1448 6.4614 23.2563 6.48806C24.0868 8.63939 23.5626 10.2325 23.406 10.6273C24.3796 11.7234 24.9719 13.1191 24.9719 14.8211C24.9719 20.8258 21.4045 22.1465 18.0073 22.5346C18.5519 23.018 19.0421 23.9711 19.0421 25.428C19.0421 27.5181 19.0217 29.2065 19.0217 29.7171C19.0217 30.0847 19.2327 30.5 19.7978 30.5C19.8892 30.5004 19.9805 30.4913 20.0701 30.4728C26.136 28.4031 30.5 22.5414 30.5 15.6381C30.5 7.00547 23.6715 0 15.25 0Z" fill="#DEE5F5"/>
</svg>
