<svg width="24" height="24" viewBox="0 0 24 24" fill="none" xmlns="http://www.w3.org/2000/svg">
<path fill-rule="evenodd" clip-rule="evenodd" d="M21.3893 6.75206C21.916 4.87097 22.1794 3.93042 21.935 3.285C21.7219 2.72228 21.2776 2.27801 20.7149 2.06489C20.0695 1.82046 19.1289 2.08381 17.2478 2.61052L7.7606 5.26694C4.78945 6.09886 3.30387 6.51482 2.8734 7.22111C2.50109 7.83197 2.46536 8.59034 2.77858 9.2335C3.14074 9.97713 4.58062 10.5309 7.4604 11.6385L9.60615 12.4638C9.98205 12.6084 10.415 12.5243 10.6997 12.2395L13.4697 9.46958C13.7625 9.17669 14.2374 9.17669 14.5303 9.46958C14.8232 9.76248 14.8232 10.2374 14.5303 10.5302L11.7604 13.3002C11.4756 13.585 11.3915 14.0178 11.536 14.3937L12.3612 16.5393C13.4688 19.4191 14.0226 20.8591 14.7662 21.2212C15.4094 21.5345 16.1677 21.4987 16.7786 21.1264C17.4849 20.696 17.9009 19.2104 18.7328 16.2392L21.3893 6.75206Z" fill="#22272F"/>
</svg>
