<svg width="483" height="754" viewBox="0 0 483 754" fill="none" xmlns="http://www.w3.org/2000/svg">
<circle cx="13.5" cy="13" r="13" fill="#C393C2"/>
<circle cx="51.5" cy="13" r="13" fill="#C393C2"/>
<circle cx="89.5" cy="13" r="13" fill="#C393C2"/>
<circle cx="127.5" cy="13" r="13" fill="#C393C2"/>
<circle cx="165.5" cy="13" r="13" fill="#C393C2"/>
<circle cx="203.5" cy="13" r="13" fill="#C393C2"/>
<circle cx="241.5" cy="13" r="13" fill="#C393C2"/>
<circle cx="279.5" cy="13" r="13" fill="#C393C2"/>
<circle cx="317.5" cy="13" r="13" fill="#C393C2"/>
<circle cx="355.5" cy="13" r="13" fill="#C393C2"/>
<circle cx="393.5" cy="13" r="13" fill="#C393C2"/>
<circle cx="431.5" cy="13" r="13" fill="#C393C2"/>
<circle cx="469.5" cy="13" r="13" fill="#C393C2"/>
<circle cx="13.5" cy="69" r="13" fill="#C393C2"/>
<circle cx="51.5" cy="69" r="13" fill="#C393C2"/>
<circle cx="89.5" cy="69" r="13" fill="#C393C2"/>
<circle cx="127.5" cy="69" r="13" fill="#C393C2"/>
<circle cx="165.5" cy="69" r="13" fill="#C393C2"/>
<circle cx="203.5" cy="69" r="13" fill="#C393C2"/>
<circle cx="241.5" cy="69" r="13" fill="#C393C2"/>
<circle cx="279.5" cy="69" r="13" fill="#C393C2"/>
<circle cx="317.5" cy="69" r="13" fill="#C393C2"/>
<circle cx="355.5" cy="69" r="13" fill="#C393C2"/>
<circle cx="393.5" cy="69" r="13" fill="#C393C2"/>
<circle cx="431.5" cy="69" r="13" fill="#C393C2"/>
<circle cx="469.5" cy="69" r="13" fill="#C393C2"/>
<circle cx="13.5" cy="125" r="13" fill="#C393C2"/>
<circle cx="51.5" cy="125" r="13" fill="#C393C2"/>
<circle cx="89.5" cy="125" r="13" fill="#C393C2"/>
<circle cx="127.5" cy="125" r="13" fill="#C393C2"/>
<circle cx="165.5" cy="125" r="13" fill="#C393C2"/>
<circle cx="203.5" cy="125" r="13" fill="#C393C2"/>
<circle cx="241.5" cy="125" r="13" fill="#C393C2"/>
<circle cx="279.5" cy="125" r="13" fill="#C393C2"/>
<circle cx="317.5" cy="125" r="13" fill="#C393C2"/>
<circle cx="355.5" cy="125" r="13" fill="#C393C2"/>
<circle cx="393.5" cy="125" r="13" fill="#C393C2"/>
<circle cx="431.5" cy="125" r="13" fill="#C393C2"/>
<circle cx="469.5" cy="125" r="13" fill="#C393C2"/>
<circle cx="13.5" cy="181" r="13" fill="#C393C2"/>
<circle cx="51.5" cy="181" r="13" fill="#C393C2"/>
<circle cx="89.5" cy="181" r="13" fill="#C393C2"/>
<circle cx="127.5" cy="181" r="13" fill="#C393C2"/>
<circle cx="165.5" cy="181" r="13" fill="#C393C2"/>
<circle cx="203.5" cy="181" r="13" fill="#C393C2"/>
<circle cx="241.5" cy="181" r="13" fill="#C393C2"/>
<circle cx="279.5" cy="181" r="13" fill="#C393C2"/>
<circle cx="317.5" cy="181" r="13" fill="#C393C2"/>
<circle cx="355.5" cy="181" r="13" fill="#C393C2"/>
<circle cx="393.5" cy="181" r="13" fill="#C393C2"/>
<circle cx="431.5" cy="181" r="13" fill="#C393C2"/>
<circle cx="469.5" cy="181" r="13" fill="#C393C2"/>
<circle cx="13.5" cy="237" r="13" fill="#C393C2"/>
<circle cx="51.5" cy="237" r="13" fill="#C393C2"/>
<circle cx="89.5" cy="237" r="13" fill="#C393C2"/>
<circle cx="127.5" cy="237" r="13" fill="#C393C2"/>
<circle cx="165.5" cy="237" r="13" fill="#C393C2"/>
<circle cx="203.5" cy="237" r="13" fill="#C393C2"/>
<circle cx="241.5" cy="237" r="13" fill="#C393C2"/>
<circle cx="279.5" cy="237" r="13" fill="#C393C2"/>
<circle cx="317.5" cy="237" r="13" fill="#C393C2"/>
<circle cx="355.5" cy="237" r="13" fill="#C393C2"/>
<circle cx="393.5" cy="237" r="13" fill="#C393C2"/>
<circle cx="431.5" cy="237" r="13" fill="#C393C2"/>
<circle cx="469.5" cy="237" r="13" fill="#C393C2"/>
<circle cx="13.5" cy="293" r="13" fill="#C393C2"/>
<circle cx="51.5" cy="293" r="13" fill="#C393C2"/>
<circle cx="89.5" cy="293" r="13" fill="#C393C2"/>
<circle cx="127.5" cy="293" r="13" fill="#C393C2"/>
<circle cx="165.5" cy="293" r="13" fill="#C393C2"/>
<circle cx="203.5" cy="293" r="13" fill="#C393C2"/>
<circle cx="241.5" cy="293" r="13" fill="#C393C2"/>
<circle cx="279.5" cy="293" r="13" fill="#C393C2"/>
<circle cx="317.5" cy="293" r="13" fill="#C393C2"/>
<circle cx="355.5" cy="293" r="13" fill="#C393C2"/>
<circle cx="393.5" cy="293" r="13" fill="#C393C2"/>
<circle cx="431.5" cy="293" r="13" fill="#C393C2"/>
<circle cx="469.5" cy="293" r="13" fill="#C393C2"/>
<circle cx="13.5" cy="349" r="13" fill="#C393C2"/>
<circle cx="51.5" cy="349" r="13" fill="#C393C2"/>
<circle cx="89.5" cy="349" r="13" fill="#C393C2"/>
<circle cx="127.5" cy="349" r="13" fill="#C393C2"/>
<circle cx="165.5" cy="349" r="13" fill="#C393C2"/>
<circle cx="203.5" cy="349" r="13" fill="#C393C2"/>
<circle cx="241.5" cy="349" r="13" fill="#C393C2"/>
<circle cx="279.5" cy="349" r="13" fill="#C393C2"/>
<circle cx="317.5" cy="349" r="13" fill="#C393C2"/>
<circle cx="355.5" cy="349" r="13" fill="#C393C2"/>
<circle cx="393.5" cy="349" r="13" fill="#C393C2"/>
<circle cx="431.5" cy="349" r="13" fill="#C393C2"/>
<circle cx="469.5" cy="349" r="13" fill="#C393C2"/>
<circle cx="13.5" cy="405" r="13" fill="#C393C2"/>
<circle cx="51.5" cy="405" r="13" fill="#C393C2"/>
<circle cx="89.5" cy="405" r="13" fill="#C393C2"/>
<circle cx="127.5" cy="405" r="13" fill="#C393C2"/>
<circle cx="165.5" cy="405" r="13" fill="#C393C2"/>
<circle cx="203.5" cy="405" r="13" fill="#C393C2"/>
<circle cx="241.5" cy="405" r="13" fill="#C393C2"/>
<circle cx="279.5" cy="405" r="13" fill="#C393C2"/>
<circle cx="317.5" cy="405" r="13" fill="#C393C2"/>
<circle cx="355.5" cy="405" r="13" fill="#C393C2"/>
<circle cx="393.5" cy="405" r="13" fill="#C393C2"/>
<circle cx="431.5" cy="405" r="13" fill="#C393C2"/>
<circle cx="469.5" cy="405" r="13" fill="#C393C2"/>
<circle cx="13.5" cy="461" r="13" fill="#C393C2"/>
<circle cx="51.5" cy="461" r="13" fill="#C393C2"/>
<circle cx="89.5" cy="461" r="13" fill="#C393C2"/>
<circle cx="127.5" cy="461" r="13" fill="#C393C2"/>
<circle cx="165.5" cy="461" r="13" fill="#C393C2"/>
<circle cx="203.5" cy="461" r="13" fill="#C393C2"/>
<circle cx="241.5" cy="461" r="13" fill="#C393C2"/>
<circle cx="279.5" cy="461" r="13" fill="#C393C2"/>
<circle cx="317.5" cy="461" r="13" fill="#C393C2"/>
<circle cx="355.5" cy="461" r="13" fill="#C393C2"/>
<circle cx="393.5" cy="461" r="13" fill="#C393C2"/>
<circle cx="431.5" cy="461" r="13" fill="#C393C2"/>
<circle cx="469.5" cy="461" r="13" fill="#C393C2"/>
<circle cx="13.5" cy="517" r="13" fill="#C393C2"/>
<circle cx="51.5" cy="517" r="13" fill="#C393C2"/>
<circle cx="89.5" cy="517" r="13" fill="#C393C2"/>
<circle cx="127.5" cy="517" r="13" fill="#C393C2"/>
<circle cx="165.5" cy="517" r="13" fill="#C393C2"/>
<circle cx="203.5" cy="517" r="13" fill="#C393C2"/>
<circle cx="241.5" cy="517" r="13" fill="#C393C2"/>
<circle cx="279.5" cy="517" r="13" fill="#C393C2"/>
<circle cx="317.5" cy="517" r="13" fill="#C393C2"/>
<circle cx="355.5" cy="517" r="13" fill="#C393C2"/>
<circle cx="393.5" cy="517" r="13" fill="#C393C2"/>
<circle cx="431.5" cy="517" r="13" fill="#C393C2"/>
<circle cx="469.5" cy="517" r="13" fill="#C393C2"/>
<circle cx="13.5" cy="573" r="13" fill="#C393C2"/>
<circle cx="51.5" cy="573" r="13" fill="#C393C2"/>
<circle cx="89.5" cy="573" r="13" fill="#C393C2"/>
<circle cx="127.5" cy="573" r="13" fill="#C393C2"/>
<circle cx="165.5" cy="573" r="13" fill="#C393C2"/>
<circle cx="203.5" cy="573" r="13" fill="#C393C2"/>
<circle cx="241.5" cy="573" r="13" fill="#C393C2"/>
<circle cx="279.5" cy="573" r="13" fill="#C393C2"/>
<circle cx="317.5" cy="573" r="13" fill="#C393C2"/>
<circle cx="355.5" cy="573" r="13" fill="#C393C2"/>
<circle cx="393.5" cy="573" r="13" fill="#C393C2"/>
<circle cx="431.5" cy="573" r="13" fill="#C393C2"/>
<circle cx="469.5" cy="573" r="13" fill="#C393C2"/>
<circle cx="13.5" cy="629" r="13" fill="#C393C2"/>
<circle cx="51.5" cy="629" r="13" fill="#C393C2"/>
<circle cx="89.5" cy="629" r="13" fill="#C393C2"/>
<circle cx="127.5" cy="629" r="13" fill="#C393C2"/>
<circle cx="165.5" cy="629" r="13" fill="#C393C2"/>
<circle cx="203.5" cy="629" r="13" fill="#C393C2"/>
<circle cx="241.5" cy="629" r="13" fill="#C393C2"/>
<circle cx="279.5" cy="629" r="13" fill="#C393C2"/>
<circle cx="317.5" cy="629" r="13" fill="#C393C2"/>
<circle cx="355.5" cy="629" r="13" fill="#C393C2"/>
<circle cx="393.5" cy="629" r="13" fill="#C393C2"/>
<circle cx="431.5" cy="629" r="13" fill="#C393C2"/>
<circle cx="469.5" cy="629" r="13" fill="#C393C2"/>
<circle cx="13.5" cy="685" r="13" fill="#C393C2"/>
<circle cx="51.5" cy="685" r="13" fill="#C393C2"/>
<circle cx="89.5" cy="685" r="13" fill="#C393C2"/>
<circle cx="127.5" cy="685" r="13" fill="#C393C2"/>
<circle cx="165.5" cy="685" r="13" fill="#C393C2"/>
<circle cx="203.5" cy="685" r="13" fill="#C393C2"/>
<circle cx="241.5" cy="685" r="13" fill="#C393C2"/>
<circle cx="279.5" cy="685" r="13" fill="#C393C2"/>
<circle cx="317.5" cy="685" r="13" fill="#C393C2"/>
<circle cx="355.5" cy="685" r="13" fill="#C393C2"/>
<circle cx="393.5" cy="685" r="13" fill="#C393C2"/>
<circle cx="431.5" cy="685" r="13" fill="#C393C2"/>
<circle cx="469.5" cy="685" r="13" fill="#C393C2"/>
<circle cx="13.5" cy="741" r="13" fill="#C393C2"/>
<circle cx="51.5" cy="741" r="13" fill="#C393C2"/>
<circle cx="89.5" cy="741" r="13" fill="#C393C2"/>
<circle cx="127.5" cy="741" r="13" fill="#C393C2"/>
<circle cx="165.5" cy="741" r="13" fill="#C393C2"/>
<circle cx="203.5" cy="741" r="13" fill="#C393C2"/>
<circle cx="241.5" cy="741" r="13" fill="#C393C2"/>
<circle cx="279.5" cy="741" r="13" fill="#C393C2"/>
<circle cx="317.5" cy="741" r="13" fill="#C393C2"/>
<circle cx="355.5" cy="741" r="13" fill="#C393C2"/>
<circle cx="393.5" cy="741" r="13" fill="#C393C2"/>
<circle cx="431.5" cy="741" r="13" fill="#C393C2"/>
<circle cx="469.5" cy="741" r="13" fill="#C393C2"/>
</svg>
