<svg width="1153" height="165" viewBox="0 0 1153 165" fill="none" xmlns="http://www.w3.org/2000/svg">
<path d="M537.051 34.144V51.68H513.243V124H491.355V51.68H467.547V34.144H537.051ZM576.324 64.48C578.884 60.5547 582.084 57.4827 585.924 55.264C589.764 52.96 594.031 51.808 598.724 51.808V74.976H592.708C587.247 74.976 583.151 76.1707 580.42 78.56C577.689 80.864 576.324 84.96 576.324 90.848V124H554.436V52.576H576.324V64.48ZM688.546 52.576L643.746 157.92H620.194L636.578 121.568L607.522 52.576H631.97L648.482 97.248L664.866 52.576H688.546Z" fill="#DEE5F5"/>
</svg>
